<?xml version="1.0" standalone="no"?>
<!DOCTYPE svg PUBLIC "-//W3C//DTD SVG 20010904//EN"
 "http://www.w3.org/TR/2001/REC-SVG-20010904/DTD/svg10.dtd">
<svg version="1.0" xmlns="http://www.w3.org/2000/svg"
 width="2880.000000pt" height="1638.000000pt" viewBox="0 0 2880.000000 1638.000000"
 preserveAspectRatio="xMidYMid meet">

<g transform="translate(0.000000,1638.000000) scale(0.100000,-0.100000)"
fill="#000000" stroke="none">
<path d="M12174 15959 c-47 -11 -86 -48 -104 -99 -17 -49 -25 -385 -11 -489
22 -163 52 -181 297 -181 192 0 227 10 260 77 17 34 19 64 19 313 0 259 -1
277 -20 310 -39 65 -70 75 -245 77 -85 1 -173 -2 -196 -8z m321 -143 c32 -32
37 -80 33 -277 -2 -138 -6 -169 -21 -192 l-18 -28 -142 3 -142 3 -17 35 c-15
29 -18 63 -18 210 0 192 8 241 43 258 12 6 75 11 140 11 111 1 119 0 142 -23z"/>
<path d="M13864 15959 c-18 -5 -45 -24 -62 -43 -45 -52 -55 -129 -50 -386 7
-337 10 -340 333 -340 114 0 205 4 224 11 l31 11 -2 202 -3 201 -140 0 -140 0
-3 -62 -3 -62 86 6 86 6 -3 -89 -3 -89 -150 -3 c-119 -2 -155 1 -170 12 -19
13 -20 29 -23 235 l-3 221 26 26 27 27 186 -4 187 -4 9 48 c10 56 5 65 -50 78
-50 11 -349 10 -390 -2z"/>
<path d="M13382 15878 c-12 -84 -21 -98 -59 -98 -21 0 -23 -5 -23 -55 l0 -55
35 0 c44 0 44 1 47 -232 l3 -188 28 -27 c24 -24 36 -28 100 -31 101 -5 141 6
145 42 2 16 1 39 -2 52 -6 23 -11 24 -81 24 -72 0 -76 1 -86 26 -5 15 -8 94
-7 178 l3 151 93 3 92 3 0 54 0 55 -95 0 -95 0 0 90 0 90 -43 0 -44 0 -11 -82z"/>
<path d="M14595 15774 c-23 -12 -34 -13 -50 -4 -12 6 -37 10 -56 8 l-34 -3 0
-290 0 -290 52 -3 51 -3 4 218 c4 261 7 273 86 273 26 0 73 -11 105 -24 40
-17 59 -21 62 -13 7 22 25 92 25 98 0 4 -22 16 -49 28 -60 25 -152 28 -196 5z"/>
<path d="M12762 15523 c3 -281 6 -295 64 -321 34 -16 156 -15 229 3 52 12 63
12 82 -1 12 -8 38 -14 58 -14 l35 0 0 295 0 295 -55 0 -55 0 0 -235 0 -235
-113 0 c-75 0 -117 4 -125 12 -9 9 -12 75 -12 235 l0 223 -56 0 -55 0 3 -257z"/>
<path d="M14952 15764 c-47 -33 -52 -59 -52 -278 0 -113 4 -216 10 -230 5 -14
24 -35 42 -46 29 -18 51 -20 188 -20 238 0 240 2 240 295 0 296 0 295 -239
295 -135 0 -171 -3 -189 -16z m299 -104 c18 -10 19 -23 19 -168 0 -86 -4 -163
-8 -170 -7 -9 -39 -12 -128 -10 l-119 3 -3 165 c-2 146 -1 166 15 177 21 16
196 18 224 3z"/>
<path d="M15440 15771 c0 -9 110 -467 131 -544 l10 -38 71 3 71 3 39 185 c21
102 41 196 45 210 l5 25 8 -25 c4 -14 25 -109 46 -212 l37 -188 72 0 72 0 72
288 c39 158 71 290 71 295 0 10 -117 9 -124 -1 -2 -4 -23 -98 -46 -207 -22
-110 -43 -207 -46 -215 -4 -8 -24 79 -45 195 -21 115 -41 215 -44 222 -3 9
-27 13 -75 13 -38 0 -70 -2 -70 -4 0 -2 -13 -77 -29 -167 -17 -90 -33 -188
-37 -216 -4 -29 -10 -53 -15 -53 -5 0 -9 7 -9 16 0 15 -75 366 -86 407 -4 14
-17 17 -65 17 -32 0 -59 -4 -59 -9z"/>
<path d="M16255 15767 c-3 -7 -4 -138 -3 -292 l3 -280 53 -3 52 -3 0 234 c0
205 2 236 16 241 9 3 62 6 119 6 81 0 107 -3 119 -16 14 -13 16 -49 16 -240
l0 -224 55 0 55 0 0 233 c0 250 -7 296 -47 333 -23 21 -35 24 -111 24 -46 0
-114 -5 -149 -12 -50 -9 -69 -9 -84 0 -25 16 -88 15 -94 -1z"/>
<path d="M19745 12939 c-11 -4 -32 -8 -47 -8 -34 -1 -38 -30 -8 -49 18 -11 20
-23 20 -156 0 -152 -4 -176 -26 -176 -8 0 -14 -9 -14 -20 0 -18 7 -20 80 -20
64 0 80 3 80 15 0 8 -9 19 -20 25 -19 10 -20 21 -20 199 0 199 -2 207 -45 190z"/>
<path d="M21173 12939 c-23 -4 -52 -13 -63 -19 -29 -15 -60 -69 -60 -103 0
-20 -7 -30 -26 -37 -30 -12 -27 -34 4 -38 21 -3 22 -9 22 -86 0 -76 -2 -84
-25 -104 -14 -13 -23 -27 -20 -32 3 -6 42 -10 86 -10 69 0 79 2 79 18 0 9 -9
23 -20 30 -17 11 -20 23 -20 97 l0 85 55 0 c66 0 75 -12 75 -100 0 -52 -4 -64
-25 -84 -42 -39 -33 -46 60 -46 68 0 85 3 85 15 0 8 -9 19 -20 25 -18 10 -20
21 -20 118 0 60 -5 113 -10 118 -6 6 -32 7 -68 3 -31 -4 -74 -8 -94 -8 -37 -1
-38 0 -38 37 0 53 23 82 64 82 28 0 36 -5 46 -31 10 -24 18 -29 34 -25 12 3
27 6 34 6 7 0 12 15 12 40 0 33 -4 40 -22 44 -56 11 -86 12 -125 5z"/>
<path d="M16642 12921 c-51 -13 -107 -56 -128 -98 -28 -57 -26 -165 5 -219 41
-72 104 -101 206 -94 56 4 119 39 110 62 -5 13 -12 12 -59 -3 -41 -14 -61 -16
-88 -9 -87 24 -134 149 -93 247 22 52 42 72 82 79 50 9 80 -8 94 -56 10 -33
17 -40 33 -38 18 3 21 11 24 55 3 50 2 51 -30 62 -50 15 -119 21 -156 12z"/>
<path d="M20135 12921 c-147 -37 -202 -230 -99 -349 39 -46 80 -63 151 -64
128 -1 211 95 201 232 -7 103 -74 172 -178 184 -25 2 -58 1 -75 -3z m113 -63
c46 -39 68 -171 38 -242 -43 -104 -166 -81 -201 37 -20 67 -19 113 5 165 30
67 103 85 158 40z"/>
<path d="M17880 12901 c0 -10 9 -21 20 -24 19 -5 20 -14 20 -162 0 -148 -1
-157 -20 -162 -11 -3 -20 -14 -20 -24 0 -17 9 -19 95 -19 76 0 95 3 95 14 0 8
-12 21 -27 28 -25 12 -28 19 -31 71 -3 57 -3 57 25 57 33 0 47 -9 56 -32 3
-10 16 -18 27 -18 18 0 20 6 20 70 0 66 -1 70 -23 70 -14 0 -26 -9 -32 -22 -7
-16 -20 -24 -42 -26 l-33 -3 0 81 0 81 47 -3 c41 -3 50 -7 68 -35 27 -44 55
-44 55 0 0 79 4 77 -156 77 -134 0 -144 -1 -144 -19z"/>
<path d="M17298 12873 c-22 -11 -28 -21 -28 -49 0 -28 -5 -36 -26 -44 -30 -12
-27 -34 4 -38 21 -3 22 -9 22 -95 0 -117 11 -137 76 -137 54 0 86 14 78 35 -4
10 -14 13 -31 9 -36 -9 -43 8 -43 103 l0 82 32 3 c22 2 34 9 36 21 3 13 -4 17
-32 17 l-35 0 -3 52 c-3 57 -10 63 -50 41z"/>
<path d="M20843 12872 c-29 -14 -33 -21 -33 -54 0 -31 -3 -38 -20 -38 -25 0
-27 -30 -1 -37 16 -4 19 -18 23 -99 6 -114 19 -134 84 -134 55 0 74 8 74 30 0
14 -7 18 -32 16 -28 -1 -32 3 -40 32 -5 19 -8 59 -6 90 3 57 3 57 38 62 51 7
54 38 3 42 -37 3 -38 4 -41 48 -2 25 -6 48 -10 51 -4 4 -22 0 -39 -9z"/>
<path d="M21473 12872 c-29 -14 -33 -21 -33 -54 0 -31 -3 -38 -20 -38 -25 0
-27 -30 -1 -37 16 -4 19 -18 23 -99 6 -114 19 -134 84 -134 55 0 74 8 74 30 0
14 -7 18 -32 16 -28 -1 -32 3 -40 32 -5 19 -8 59 -6 90 3 57 3 57 38 62 51 7
54 38 3 42 -37 3 -38 4 -41 48 -2 25 -6 48 -10 51 -4 4 -22 0 -39 -9z"/>
<path d="M16921 12785 c-52 -13 -62 -30 -32 -51 18 -13 21 -25 21 -95 0 -72 3
-82 25 -104 28 -29 97 -34 129 -10 17 13 21 13 31 -1 9 -12 21 -14 58 -9 41 6
47 10 47 31 0 15 -6 24 -15 24 -12 0 -15 17 -15 96 0 127 -4 135 -72 119 -35
-8 -54 -17 -56 -28 -2 -10 3 -17 12 -17 25 0 39 -39 32 -88 -7 -54 -30 -92
-54 -92 -35 0 -42 21 -42 121 0 113 -5 120 -69 104z"/>
<path d="M17543 12789 c-91 -27 -123 -164 -55 -240 46 -52 158 -57 205 -10 31
30 10 48 -31 27 -17 -9 -40 -16 -52 -16 -27 0 -70 43 -70 69 0 18 8 20 83 23
81 3 82 3 85 30 4 36 -23 92 -51 106 -34 17 -79 21 -114 11z m77 -65 c16 -40
13 -44 -35 -44 -34 0 -45 4 -45 16 0 54 62 76 80 28z"/>
<path d="M18291 12790 c-18 -4 -47 -22 -64 -38 -25 -25 -31 -41 -35 -88 -8
-100 42 -156 139 -156 62 1 97 18 126 61 42 62 24 169 -35 203 -36 20 -89 28
-131 18z m85 -65 c24 -36 28 -95 11 -138 -14 -31 -21 -37 -46 -37 -43 0 -66
38 -66 111 0 33 6 63 14 72 21 26 68 21 87 -8z"/>
<path d="M18585 12787 c-22 -5 -46 -11 -52 -13 -20 -5 -15 -32 7 -39 18 -6 20
-15 20 -92 0 -76 -2 -85 -20 -90 -11 -3 -20 -14 -20 -24 0 -17 9 -19 90 -19
82 0 90 2 90 19 0 12 -9 21 -24 25 -29 7 -40 46 -30 103 8 49 32 77 51 62 7
-6 13 -18 13 -26 0 -10 6 -13 16 -9 9 3 20 6 25 6 6 0 9 21 7 48 -3 44 -5 47
-32 50 -18 2 -40 -4 -57 -17 -28 -21 -29 -21 -29 -2 0 26 -8 29 -55 18z"/>
<path d="M18855 12787 c-22 -5 -46 -11 -52 -13 -20 -5 -15 -31 7 -37 18 -5 20
-14 20 -91 0 -75 -2 -87 -20 -96 -11 -6 -20 -17 -20 -25 0 -12 16 -15 79 -15
44 0 82 4 86 9 3 6 -5 19 -17 31 -44 41 -21 190 30 190 35 0 46 -18 50 -79 5
-72 -3 -111 -23 -111 -8 0 -15 -9 -15 -20 0 -18 7 -20 80 -20 64 0 80 3 80 15
0 8 -9 19 -20 25 -36 19 -25 156 14 182 39 27 66 -9 66 -87 0 -72 -6 -95 -26
-95 -8 0 -14 -9 -14 -20 0 -18 7 -20 80 -20 64 0 80 3 80 15 0 8 -9 19 -19 24
-16 9 -20 25 -23 107 -3 86 -5 98 -27 115 -32 26 -95 25 -133 -2 -26 -19 -30
-20 -41 -6 -28 37 -111 43 -138 11 -15 -18 -29 -18 -29 0 0 21 -10 23 -55 13z"/>
<path d="M19442 12789 c-58 -11 -62 -15 -62 -60 0 -34 3 -39 23 -39 16 0 26 9
34 30 14 38 38 47 63 25 22 -20 27 -65 8 -65 -32 0 -90 -23 -118 -46 -35 -30
-41 -81 -12 -107 24 -22 100 -22 130 -1 20 14 22 14 22 -2 0 -14 7 -15 48 -9
61 9 81 34 42 55 -17 9 -20 21 -20 74 0 87 -15 125 -56 142 -37 15 -40 16
-102 3z m78 -167 c0 -30 -30 -63 -53 -60 -31 4 -34 42 -5 62 30 21 58 20 58
-2z"/>
<path d="M20495 12789 c-11 -4 -32 -8 -47 -8 -32 -1 -38 -26 -11 -46 12 -9 17
-33 21 -96 5 -106 22 -129 91 -129 25 0 55 7 65 15 17 13 21 13 30 -1 9 -11
22 -13 55 -8 48 8 64 30 36 51 -16 11 -20 31 -25 118 -3 58 -8 105 -13 105 -4
1 -30 -2 -57 -6 -38 -5 -50 -11 -50 -24 0 -10 9 -20 20 -23 17 -4 20 -14 20
-69 0 -69 -18 -108 -49 -108 -34 0 -44 28 -49 131 -3 55 -7 101 -11 103 -3 2
-15 0 -26 -5z"/>
<path d="M18590 11849 c-23 -9 -23 -11 -7 -20 14 -8 17 -25 17 -110 0 -79 -3
-101 -15 -105 -32 -13 -13 -24 40 -24 56 0 67 8 40 30 -12 10 -15 37 -15 126
0 124 -1 126 -60 103z"/>
<path d="M20293 11853 c-27 -5 -29 -16 -7 -34 12 -10 15 -32 13 -112 -3 -113
-1 -117 72 -117 55 0 85 21 97 65 20 75 -26 131 -88 108 l-30 -11 0 54 c0 57
-1 58 -57 47z m121 -139 c12 -31 6 -71 -14 -89 -29 -26 -50 -13 -50 34 0 54 8
71 35 71 13 0 26 -7 29 -16z"/>
<path d="M20883 11853 c-27 -5 -27 -3 -8 -39 19 -38 19 -178 -1 -195 -25 -21
-15 -29 36 -29 38 0 50 4 50 15 0 8 -4 15 -10 15 -16 0 -12 86 5 100 28 23 45
4 45 -50 0 -27 -4 -50 -10 -50 -5 0 -10 -7 -10 -15 0 -11 12 -15 51 -15 l51 0
-16 25 c-9 14 -16 45 -16 74 0 43 -4 53 -25 67 -19 13 -31 14 -54 6 l-30 -11
-3 52 c-3 54 -9 59 -55 50z"/>
<path d="M17073 11830 c-59 -35 -79 -109 -48 -174 20 -42 63 -66 119 -66 38 0
51 5 79 34 111 110 -18 287 -150 206z m102 -27 c52 -51 42 -170 -15 -188 -27
-8 -68 18 -80 51 -15 38 -12 107 6 132 18 27 65 30 89 5z"/>
<path d="M18350 11836 c0 -7 7 -16 15 -20 12 -4 15 -24 15 -94 0 -67 -4 -93
-15 -102 -30 -25 -13 -31 83 -28 l97 3 3 33 c4 37 -16 44 -36 11 -10 -15 -21
-19 -45 -17 -30 3 -32 6 -35 46 -4 48 15 57 45 23 23 -27 33 -17 33 30 0 40
-22 55 -34 24 -3 -8 -15 -15 -26 -15 -17 0 -20 6 -20 45 0 43 1 45 30 45 19 0
34 -7 42 -20 20 -32 40 -25 36 13 l-3 32 -92 3 c-75 2 -93 0 -93 -12z"/>
<path d="M18924 11835 c-4 -9 -2 -21 4 -27 16 -16 47 -5 47 17 0 26 -42 34
-51 10z"/>
<path d="M19276 11842 c-3 -5 1 -15 9 -22 22 -18 22 -195 0 -204 -38 -14 -10
-26 60 -26 88 0 129 17 139 56 7 28 -14 71 -39 80 -10 4 -9 10 6 25 23 23 24
48 5 74 -12 16 -29 20 -94 23 -46 2 -82 0 -86 -6z m122 -31 c8 -5 12 -21 10
-37 -2 -23 -9 -30 -30 -32 -27 -3 -28 -1 -28 37 0 42 16 53 48 32z m19 -127
c20 -31 9 -57 -27 -62 -28 -4 -40 12 -40 56 0 27 3 32 25 32 15 0 31 -10 42
-26z"/>
<path d="M17280 11758 c0 -6 6 -19 14 -27 7 -9 24 -44 36 -78 13 -37 29 -63
37 -63 8 0 24 23 37 51 l22 51 22 -52 c29 -71 48 -65 78 24 13 37 28 74 34 81
13 16 3 25 -30 25 -35 0 -43 -10 -26 -29 10 -12 11 -24 3 -51 l-10 -35 -14 35
c-9 19 -19 45 -24 58 -13 35 -31 22 -55 -38 l-21 -53 -13 37 c-8 26 -9 40 -1
50 16 19 3 26 -46 26 -26 0 -43 -5 -43 -12z"/>
<path d="M17615 11763 c-32 -8 -42 -23 -22 -34 23 -13 25 -104 2 -113 -32 -12
-13 -26 35 -26 38 0 50 4 50 15 0 8 -4 15 -10 15 -16 0 -12 86 5 100 28 23 45
4 45 -50 0 -27 -4 -50 -10 -50 -5 0 -10 -7 -10 -15 0 -11 12 -15 50 -15 53 0
58 4 35 34 -8 11 -15 41 -15 68 0 40 -4 50 -25 64 -21 14 -30 15 -52 5 -18 -8
-29 -9 -37 -1 -5 5 -12 9 -15 9 -4 -1 -15 -3 -26 -6z"/>
<path d="M17845 11745 c-19 -18 -25 -35 -25 -68 0 -57 30 -87 86 -87 45 1 84
24 67 41 -8 8 -13 8 -17 0 -12 -19 -64 -13 -76 8 -15 29 -14 30 43 33 51 3 52
4 50 33 -5 62 -82 87 -128 40z m79 -21 c9 -22 -1 -34 -30 -34 -25 0 -28 7 -18
34 8 21 40 21 48 0z"/>
<path d="M18035 11763 c-32 -8 -42 -23 -22 -34 22 -13 24 -91 2 -109 -27 -22
-16 -30 45 -30 61 0 76 11 40 30 -20 11 -27 51 -14 84 7 17 34 22 34 6 0 -5 7
-10 15 -10 21 0 20 59 0 67 -9 3 -24 -2 -34 -11 -16 -15 -19 -15 -24 -1 -7 16
-9 16 -42 8z"/>
<path d="M18690 11755 c0 -8 4 -15 9 -15 5 0 24 -34 42 -75 21 -49 38 -75 49
-75 11 0 28 26 49 75 18 41 37 75 42 75 5 0 9 7 9 15 0 10 -10 15 -33 15 -41
0 -49 -7 -35 -30 8 -13 7 -27 -4 -55 l-15 -38 -17 44 c-12 29 -14 45 -7 47 6
2 11 10 11 18 0 10 -14 14 -50 14 -38 0 -50 -4 -50 -15z"/>
<path d="M18935 11763 c-32 -8 -42 -23 -22 -34 23 -13 25 -104 2 -113 -32 -12
-13 -26 35 -26 49 0 59 7 41 26 -6 5 -11 40 -13 78 -3 70 -7 77 -43 69z"/>
<path d="M19052 11754 c-33 -23 -29 -61 9 -82 58 -32 66 -40 50 -51 -19 -12
-51 4 -51 25 0 9 -6 14 -12 12 -7 -3 -13 -18 -13 -34 0 -28 2 -29 49 -32 91
-6 119 63 42 103 -22 11 -41 26 -44 33 -6 18 35 15 42 -3 9 -25 36 -18 36 9 0
38 -65 50 -108 20z"/>
<path d="M19548 11763 c-12 -3 -18 -14 -18 -34 0 -34 25 -40 35 -9 8 24 40 26
49 3 7 -17 -9 -33 -34 -33 -53 0 -86 -84 -37 -94 18 -4 75 -3 135 3 13 1 17
31 3 31 -5 0 -11 25 -13 56 -7 76 -40 98 -120 77z m63 -115 c-11 -30 -41 -37
-41 -10 0 20 12 30 37 31 9 1 10 -6 4 -21z"/>
<path d="M19740 11763 c-8 -2 -21 -7 -29 -9 -11 -4 -11 -8 3 -22 9 -11 16 -36
16 -61 0 -61 14 -81 55 -81 18 0 37 5 40 10 5 8 11 8 20 0 17 -14 65 -2 65 16
0 8 -4 14 -10 14 -5 0 -10 30 -12 68 l-3 67 -35 -3 c-44 -5 -50 -10 -27 -26
34 -26 11 -126 -27 -113 -6 2 -13 34 -16 72 -5 68 -11 78 -40 68z"/>
<path d="M19965 11763 c-32 -8 -42 -23 -22 -34 23 -13 25 -104 2 -113 -32 -12
-13 -26 35 -26 38 0 50 4 50 15 0 8 -4 15 -10 15 -16 0 -12 86 5 100 28 23 45
4 45 -50 0 -27 -4 -50 -10 -50 -5 0 -10 -7 -10 -15 0 -11 12 -15 50 -15 51 0
61 8 35 30 -29 24 -11 110 24 110 10 0 22 -7 25 -16 11 -29 6 -81 -9 -94 -26
-22 -16 -30 35 -30 47 0 63 11 40 25 -5 3 -10 25 -10 48 0 62 -10 87 -37 98
-18 7 -34 5 -56 -6 -18 -9 -33 -11 -36 -6 -10 16 -58 23 -79 12 -14 -7 -23 -8
-27 -1 -6 10 -8 11 -40 3z"/>
<path d="M20531 11759 c-15 -6 -21 -14 -17 -25 3 -9 6 -20 6 -25 0 -18 28 -8
33 12 7 26 42 22 42 -5 0 -13 -10 -22 -29 -27 -81 -22 -90 -99 -11 -99 17 0
36 5 43 12 9 9 12 9 12 0 0 -16 32 -15 54 1 16 12 16 14 2 26 -11 9 -16 30
-16 61 0 71 -46 98 -119 69z m69 -103 c0 -22 -29 -41 -42 -28 -8 8 -8 15 2 27
16 19 40 20 40 1z"/>
<path d="M20725 11745 c-34 -33 -35 -102 -2 -133 25 -24 75 -29 108 -12 32 18
22 31 -20 24 -33 -5 -41 -3 -50 14 -12 23 -14 62 -5 86 9 23 45 20 51 -4 8
-31 33 -24 33 9 0 48 -73 59 -115 16z"/>
<path d="M18192 11748 c-7 -7 -12 -17 -12 -24 0 -19 32 -26 48 -10 13 12 13
18 2 30 -15 19 -22 20 -38 4z"/>
<path d="M18184 11635 c-4 -9 -2 -21 4 -27 16 -16 47 -5 47 17 0 26 -42 34
-51 10z"/>
<path d="M19633 11013 c-24 -5 -30 -18 -13 -28 6 -3 10 -50 10 -105 0 -55 -4
-102 -10 -105 -23 -14 -7 -25 40 -25 28 0 50 2 50 4 0 2 -7 17 -15 32 -10 20
-15 60 -15 132 0 76 -3 102 -12 101 -7 -1 -23 -4 -35 -6z"/>
<path d="M19943 11013 c-27 -5 -28 -7 -7 -39 14 -20 16 -41 11 -114 -5 -81 -4
-91 13 -100 26 -14 102 -12 121 3 42 32 53 113 19 147 -22 22 -74 27 -87 8 -5
-8 -10 9 -13 42 -5 57 -11 62 -57 53z m127 -173 c0 -36 -31 -75 -53 -67 -25 9
-24 102 0 116 24 13 53 -14 53 -49z"/>
<path d="M20163 11013 c-26 -5 -30 -21 -8 -29 12 -5 15 -26 15 -104 0 -78 -3
-99 -15 -104 -32 -12 -13 -26 35 -26 38 0 50 4 50 15 0 8 -4 15 -10 15 -6 0
-10 47 -10 120 0 130 3 125 -57 113z"/>
<path d="M17695 10985 c-14 -13 -25 -33 -25 -43 0 -28 36 -70 80 -92 44 -23
55 -43 34 -65 -25 -25 -73 -3 -74 33 0 6 -9 12 -20 12 -16 0 -20 -7 -20 -30 0
-36 23 -50 82 -50 61 0 88 21 88 70 0 41 -2 43 -80 93 -44 28 -47 61 -8 65 22
3 30 -2 38 -23 12 -31 34 -28 38 5 8 52 -88 71 -133 25z"/>
<path d="M19506 11001 c-4 -5 -3 -17 0 -26 10 -24 48 -15 52 13 3 18 -1 22
-22 22 -14 0 -27 -4 -30 -9z"/>
<path d="M17907 10976 c-9 -7 -17 -23 -17 -35 0 -12 -6 -21 -15 -21 -8 0 -15
-4 -15 -9 0 -5 7 -11 15 -15 11 -4 15 -21 15 -64 0 -69 13 -85 61 -80 40 4 52
28 15 28 -25 0 -26 3 -26 53 0 49 3 55 28 67 l27 14 -27 4 c-23 3 -28 8 -28
32 0 35 -10 42 -33 26z"/>
<path d="M18237 10976 c-9 -7 -17 -23 -17 -35 0 -12 -6 -21 -15 -21 -8 0 -15
-4 -15 -9 0 -5 7 -11 15 -15 11 -4 15 -21 15 -64 0 -69 13 -85 61 -80 40 4 52
28 15 28 -25 0 -26 3 -26 53 0 49 3 55 28 67 l27 14 -27 4 c-23 3 -28 8 -28
32 0 35 -10 42 -33 26z"/>
<path d="M18043 10920 c-24 -10 -31 -44 -12 -56 7 -4 19 3 29 16 12 15 23 21
34 17 28 -11 14 -41 -21 -48 -18 -3 -40 -12 -48 -19 -19 -16 -20 -54 -1 -69
13 -11 102 -13 139 -4 18 5 24 33 7 33 -5 0 -10 23 -10 50 0 77 -46 108 -117
80z m67 -104 c0 -22 -29 -41 -42 -28 -8 8 -8 15 2 27 16 19 40 20 40 1z"/>
<path d="M18358 10923 c-26 -4 -41 -33 -18 -33 6 0 10 -19 10 -42 0 -80 44
-118 100 -88 15 8 20 8 20 -1 0 -8 11 -9 32 -5 41 8 41 8 23 42 -8 16 -15 53
-15 83 0 44 -3 52 -16 47 -9 -3 -24 -6 -35 -6 -10 0 -19 -7 -19 -15 0 -8 5
-15 10 -15 17 0 12 -86 -6 -101 -26 -21 -44 14 -44 83 0 32 -3 57 -7 57 -5 -1
-20 -4 -35 -6z"/>
<path d="M18582 10914 c-33 -23 -29 -61 9 -82 58 -32 66 -40 50 -51 -19 -12
-51 4 -51 25 0 9 -6 14 -12 12 -7 -3 -13 -18 -13 -34 0 -28 2 -29 49 -32 91
-6 119 63 42 103 -22 11 -41 26 -44 33 -6 18 35 15 42 -3 9 -25 36 -18 36 9 0
38 -65 50 -108 20z"/>
<path d="M18931 10919 c-15 -6 -21 -14 -17 -25 3 -9 6 -20 6 -25 0 -18 28 -8
33 12 7 26 42 22 42 -5 0 -13 -10 -22 -29 -27 -81 -22 -90 -99 -11 -99 17 0
36 5 43 12 9 9 12 9 12 0 0 -16 32 -15 54 1 16 12 16 14 2 26 -11 9 -16 30
-16 61 0 71 -46 98 -119 69z m69 -103 c0 -22 -29 -41 -42 -28 -8 8 -8 15 2 27
16 19 40 20 40 1z"/>
<path d="M19080 10916 c0 -8 4 -17 9 -21 5 -3 24 -37 42 -75 20 -44 38 -70 48
-70 10 0 26 24 45 70 15 38 34 74 42 81 20 17 7 29 -32 29 -23 0 -34 -5 -34
-14 0 -8 5 -16 11 -18 9 -3 9 -13 0 -41 -7 -20 -16 -37 -20 -37 -4 0 -13 17
-20 37 -10 27 -11 38 -2 41 6 2 11 10 11 18 0 10 -14 14 -50 14 -37 0 -50 -4
-50 -14z"/>
<path d="M19323 10920 c-24 -10 -31 -44 -12 -56 7 -4 19 3 29 16 12 15 23 21
34 17 28 -11 14 -41 -21 -48 -18 -3 -40 -12 -48 -19 -19 -16 -20 -54 -1 -69
13 -11 102 -13 139 -4 18 5 24 33 7 33 -5 0 -10 23 -10 50 0 77 -46 108 -117
80z m67 -104 c0 -22 -29 -41 -42 -28 -8 8 -8 15 2 27 16 19 40 20 40 1z"/>
<path d="M19520 10923 c-34 -6 -47 -21 -27 -29 23 -8 24 -109 2 -118 -33 -12
-12 -26 40 -26 52 0 73 14 40 26 -11 5 -15 24 -15 80 0 41 -3 73 -7 73 -5 -1
-19 -4 -33 -6z"/>
<path d="M19768 10923 c-12 -3 -18 -14 -18 -34 0 -33 25 -40 33 -9 8 29 49 27
45 -2 -2 -15 -13 -24 -35 -30 -43 -11 -69 -49 -53 -78 10 -19 18 -20 86 -17
41 2 77 6 80 9 3 4 1 14 -5 25 -5 10 -13 39 -16 65 -3 26 -13 55 -21 63 -15
14 -59 18 -96 8z m60 -115 c-4 -29 -38 -38 -38 -10 0 22 8 32 27 32 9 0 13 -8
11 -22z"/>
<path d="M20298 10910 c-44 -34 -43 -126 2 -150 26 -14 94 -12 108 2 21 21 13
27 -24 21 -29 -5 -40 -2 -50 12 -22 30 -17 34 39 37 51 3 52 3 49 33 -6 60
-74 85 -124 45z m70 -38 c3 -18 -1 -22 -22 -22 -19 0 -26 5 -26 18 0 39 43 43
48 4z"/>
<path d="M18751 10910 c-19 -11 -9 -45 14 -45 13 0 21 8 23 21 3 23 -17 37
-37 24z"/>
<path d="M18747 10804 c-4 -4 -7 -16 -7 -26 0 -13 7 -18 26 -18 21 0 25 4 22
22 -3 23 -27 35 -41 22z"/>
<path d="M9400 10410 c-8 -5 -25 -7 -37 -3 -14 3 -23 1 -23 -6 0 -6 -6 -11
-14 -11 -7 0 -19 -7 -26 -15 -9 -11 -23 -14 -45 -9 -25 4 -35 2 -42 -11 -12
-20 -23 -21 -33 -4 -10 15 -77 2 -160 -30 -30 -12 -75 -24 -98 -26 -53 -6 -62
-11 -62 -34 0 -11 -14 -24 -37 -34 -41 -18 -85 -48 -146 -99 -20 -17 -47 -36
-60 -43 -42 -22 -116 -100 -119 -125 -2 -14 -9 -25 -17 -25 -29 0 -23 -25 6
-26 l28 -1 -27 -11 c-16 -6 -28 -14 -28 -19 0 -13 51 -21 63 -9 6 6 20 11 32
11 11 0 28 9 38 20 10 12 23 18 29 14 8 -5 9 -1 5 11 -6 14 -3 16 13 12 14 -4
32 5 58 30 20 19 49 41 64 49 16 8 28 19 28 24 0 6 8 10 17 10 15 0 14 -2 -3
-14 -10 -8 -15 -18 -11 -23 5 -4 15 1 22 12 29 42 50 65 62 65 7 0 16 6 20 13
15 23 129 107 146 107 10 0 20 7 23 15 4 8 10 15 16 15 5 0 35 12 66 26 31 14
72 28 90 31 18 3 35 10 38 14 3 5 16 9 29 9 13 0 26 4 29 9 3 5 22 12 42 15
41 8 109 46 82 46 -21 0 -24 16 -5 23 6 3 1 6 -13 6 -14 0 -32 -4 -40 -9z m20
-24 c0 -2 -7 -6 -15 -10 -8 -3 -15 -1 -15 4 0 6 7 10 15 10 8 0 15 -2 15 -4z
m-93 -32 c-3 -3 -12 -4 -19 -1 -8 3 -5 6 6 6 11 1 17 -2 13 -5z"/>
<path d="M19330 10212 c0 -5 -11 -14 -25 -20 -21 -10 -25 -19 -25 -51 0 -31 6
-43 26 -58 21 -15 25 -25 22 -53 l-4 -35 -12 28 c-15 35 -42 36 -42 2 0 -18 8
-29 28 -38 15 -6 32 -19 39 -27 10 -13 12 -13 18 3 4 9 13 17 20 17 20 0 45
35 45 62 0 17 -11 35 -30 51 -20 18 -30 35 -30 54 1 24 2 25 11 11 5 -10 17
-18 25 -18 24 0 13 43 -13 55 -13 5 -23 13 -23 17 0 5 -7 8 -15 8 -8 0 -15 -4
-15 -8z m-3 -74 c-3 -7 -5 -2 -5 12 0 14 2 19 5 13 2 -7 2 -19 0 -25z m48
-111 c0 -26 -20 -25 -23 2 -3 16 1 22 10 19 7 -3 13 -12 13 -21z"/>
<path d="M18508 10171 c-29 -26 -33 -35 -33 -81 0 -46 4 -55 33 -81 35 -32 81
-38 127 -17 40 18 29 28 -23 21 -45 -5 -50 -3 -71 23 -19 23 -22 38 -18 73 6
50 28 73 67 69 17 -2 26 -10 28 -25 5 -34 32 -29 32 6 0 33 -14 41 -71 41 -29
0 -47 -8 -71 -29z"/>
<path d="M19023 10173 c-7 -2 -13 -13 -13 -23 0 -10 -6 -20 -12 -23 -10 -4
-10 -7 0 -18 6 -7 12 -31 12 -54 0 -53 18 -78 53 -73 27 3 39 23 15 23 -8 0
-14 18 -16 48 -2 36 0 47 12 47 24 0 30 21 7 27 -14 3 -21 13 -21 29 0 23 -11
28 -37 17z"/>
<path d="M19496 10075 c-31 -41 -54 -80 -51 -85 3 -6 24 -10 46 -10 35 0 39
-3 39 -25 0 -20 5 -25 25 -25 20 0 25 5 25 25 0 16 6 25 15 25 8 0 15 9 15 20
0 11 -7 20 -15 20 -10 0 -15 16 -17 62 -2 34 -8 63 -14 65 -6 2 -37 -30 -68
-72z m34 -30 c0 -18 -5 -25 -20 -25 -20 0 -20 1 -4 25 9 14 18 25 20 25 2 0 4
-11 4 -25z"/>
<path d="M18701 10104 c-45 -57 -14 -124 58 -124 31 0 44 6 60 26 12 15 21 37
21 49 0 12 -9 34 -21 49 -16 20 -29 26 -59 26 -30 0 -43 -6 -59 -26z m77 -6
c14 -14 16 -67 2 -88 -23 -37 -64 39 -46 86 7 17 28 18 44 2z"/>
<path d="M18872 10118 c-6 -6 -12 -19 -12 -28 0 -18 30 -50 47 -50 6 0 16 -7
23 -15 10 -12 9 -16 -5 -21 -12 -5 -23 1 -36 17 -16 21 -18 22 -24 6 -12 -30
2 -47 40 -47 83 0 104 55 35 90 -41 21 -53 40 -25 40 9 0 18 -7 21 -15 10 -24
36 -18 32 8 -2 18 -10 23 -43 25 -23 2 -46 -3 -53 -10z"/>
<path d="M19125 10110 c-9 -15 4 -30 26 -30 12 0 19 7 19 20 0 21 -33 29 -45
10z"/>
<path d="M5335 10041 c-17 -10 -48 -37 -70 -60 -42 -44 -58 -51 -54 -23 8 48
-32 98 -46 60 -3 -7 -24 -14 -47 -16 -50 -3 -78 -25 -70 -54 5 -20 3 -21 -57
-14 -33 4 -82 13 -107 21 -44 13 -46 13 -74 -13 -33 -31 -132 -218 -128 -241
3 -17 84 -35 209 -46 94 -9 140 9 169 64 25 50 80 99 116 107 28 5 34 1 67
-44 41 -55 95 -95 150 -110 31 -9 44 -7 85 14 49 25 202 158 202 176 0 18
-150 142 -207 171 -50 25 -105 29 -138 8z"/>
<path d="M19125 10020 c-9 -15 4 -30 26 -30 12 0 19 7 19 20 0 21 -33 29 -45
10z"/>
<path d="M8765 9980 c-10 -11 -16 -22 -14 -24 2 -2 12 7 22 20 22 29 17 32 -8
4z"/>
<path d="M8700 9899 c0 -5 5 -7 10 -4 6 3 10 8 10 11 0 2 -4 4 -10 4 -5 0 -10
-5 -10 -11z"/>
<path d="M8612 9762 c-77 -114 -119 -295 -108 -471 6 -112 26 -237 45 -284 13
-33 54 -123 84 -187 53 -110 181 -254 292 -329 39 -27 91 -62 116 -79 26 -18
53 -32 61 -32 8 0 18 -4 24 -9 19 -19 205 -80 264 -87 50 -5 318 -5 395 0 70
6 115 17 115 28 0 6 14 8 30 6 l30 -5 0 54 c0 52 -6 62 -25 44 -6 -4 -23 -11
-40 -14 -21 -4 -16 0 18 15 32 14 47 27 47 39 0 16 -4 17 -27 8 -15 -6 -32
-14 -38 -19 -16 -13 -125 -51 -190 -66 -154 -35 -393 7 -520 91 -87 58 -287
241 -363 332 -171 205 -212 301 -228 538 -9 131 27 309 87 426 12 24 15 39 8
39 -6 0 -13 -9 -16 -20 -3 -11 -9 -20 -13 -20 -12 0 -66 -129 -85 -205 -22
-85 -26 -325 -6 -395 29 -107 33 -129 21 -147 -9 -16 -10 -15 -9 7 2 14 -4 41
-13 60 -44 104 -55 295 -24 440 28 133 59 217 95 263 8 9 12 19 10 22 -3 2
-19 -17 -37 -43z m9 -809 c-9 -15 -10 -13 -6 12 3 17 2 24 -1 17 -3 -6 -10
-10 -15 -6 -5 3 -4 14 3 27 11 22 11 22 20 -5 6 -18 6 -34 -1 -45z m26 -15
c-3 -8 -6 -5 -6 6 -1 11 2 17 5 13 3 -3 4 -12 1 -19z m31 -59 c-3 -8 -7 -3
-11 10 -4 17 -3 21 5 13 5 -5 8 -16 6 -23z m32 -40 c0 -6 -4 -7 -10 -4 -5 3
-10 11 -10 16 0 6 5 7 10 4 6 -3 10 -11 10 -16z m97 -122 c7 -4 13 -13 13 -19
0 -16 -38 20 -71 69 -42 60 -36 65 8 7 20 -27 43 -53 50 -57z m47 -53 c3 -8 2
-12 -4 -9 -6 3 -10 10 -10 16 0 14 7 11 14 -7z"/>
<path d="M7203 9663 c-12 -2 -27 -11 -33 -19 -7 -8 -16 -14 -21 -14 -9 0 -36
-11 -165 -70 -59 -28 -60 -29 -56 -64 2 -20 -1 -50 -8 -67 -11 -26 -11 -32 7
-49 12 -11 23 -38 27 -67 10 -70 45 -178 76 -235 6 -10 10 -24 10 -32 0 -8 5
-18 10 -21 6 -4 9 3 6 17 -2 13 1 29 6 35 6 7 8 27 6 45 -5 34 38 168 53 168
5 0 9 7 9 16 0 8 7 22 15 30 25 25 106 337 86 333 -3 -1 -16 -4 -28 -6z"/>
<path d="M6077 9370 c-104 -27 -195 -54 -203 -61 -18 -15 -18 -38 2 -106 16
-55 47 -98 64 -88 18 11 404 104 412 99 4 -3 15 10 24 28 15 32 14 38 -8 103
l-23 70 -40 2 c-22 1 -125 -20 -228 -47z m243 -14 c0 -3 -4 -8 -10 -11 -5 -3
-10 -1 -10 4 0 6 5 11 10 11 6 0 10 -2 10 -4z m-130 -32 c0 -8 -5 -12 -10 -9
-6 4 -8 11 -5 16 9 14 15 11 15 -7z m-30 -44 c0 -24 -5 -30 -32 -36 -18 -4
-37 -7 -41 -6 -4 1 -17 -2 -27 -8 -17 -9 -20 -7 -20 15 0 37 -18 31 -22 -7
l-4 -33 -12 28 c-6 15 -17 27 -23 27 -24 0 0 12 42 21 34 8 45 7 60 -7 18 -16
19 -16 19 9 0 16 6 27 18 29 29 7 42 -3 42 -32z m148 15 c10 -9 -14 -34 -36
-38 -37 -7 -55 9 -39 34 9 15 19 18 42 13 17 -3 31 -7 33 -9z m-339 -61 c13
-30 7 -44 -20 -44 -20 0 -44 44 -33 61 11 18 41 8 53 -17z"/>
<path d="M7064 9055 c4 -24 16 -30 16 -7 0 12 -4 22 -9 22 -5 0 -8 -7 -7 -15z"/>
<path d="M8112 8990 c0 -14 2 -19 5 -12 2 6 2 18 0 25 -3 6 -5 1 -5 -13z"/>
<path d="M8124 8884 c4 -32 11 -60 16 -62 6 -2 10 -25 10 -52 0 -26 7 -61 15
-76 8 -16 15 -36 15 -44 0 -8 7 -24 15 -34 8 -10 12 -22 10 -26 -3 -4 7 -36
20 -71 14 -34 25 -72 25 -83 0 -17 2 -18 10 -6 7 12 11 10 18 -10 45 -117 56
-134 140 -217 72 -71 307 -213 353 -213 10 0 19 -4 19 -9 0 -6 20 -13 45 -17
25 -3 48 -10 51 -15 3 -5 14 -9 25 -9 10 0 27 -4 37 -10 33 -18 128 -39 245
-55 207 -27 677 -15 677 18 0 4 4 6 9 3 5 -3 14 1 21 9 7 8 23 15 36 15 18 0
24 6 24 21 0 18 -4 20 -32 14 -18 -4 -52 -13 -75 -21 -23 -7 -81 -18 -130 -25
-48 -6 -95 -15 -104 -19 -8 -4 -73 -8 -145 -9 -381 -4 -681 109 -924 349 -196
194 -275 313 -365 555 -19 50 -37 102 -41 118 -13 55 -27 42 -20 -19z"/>
<path d="M22983 8753 c-27 -5 -30 -21 -7 -30 13 -5 15 -23 13 -110 -3 -120 -1
-123 74 -123 38 0 53 5 73 25 21 21 25 33 22 77 -3 45 -7 54 -30 68 -22 12
-33 12 -57 3 l-30 -11 -3 51 c-3 54 -9 59 -55 50z m111 -129 c34 -34 9 -120
-33 -112 -23 5 -28 90 -6 112 20 20 20 20 39 0z"/>
<path d="M23403 8753 c-24 -5 -30 -18 -13 -28 6 -3 10 -52 10 -110 0 -118 4
-125 80 -125 86 0 133 98 75 155 -26 27 -54 31 -86 15 -18 -10 -19 -7 -19 45
0 57 0 57 -47 48z m127 -178 c0 -13 -9 -33 -19 -46 -16 -20 -23 -22 -38 -13
-28 17 -29 78 -2 105 l22 22 19 -23 c10 -12 18 -32 18 -45z"/>
<path d="M15760 8643 c-24 -60 -49 -115 -57 -124 -20 -24 -16 -29 22 -29 35 0
36 1 30 34 -6 29 -4 34 17 39 61 17 103 -6 80 -44 -18 -28 -16 -29 38 -29 28
0 50 2 50 5 0 3 -22 52 -49 108 -27 56 -52 112 -55 125 -14 44 -34 21 -76 -85z
m55 -3 c22 -42 19 -50 -16 -50 -24 0 -30 3 -25 16 3 9 9 27 12 40 8 31 10 30
29 -6z"/>
<path d="M16495 8736 c-81 -36 -94 -157 -25 -218 24 -23 40 -28 80 -28 71 0
100 16 100 54 0 17 3 41 6 54 6 20 3 22 -40 22 -33 0 -46 -4 -46 -14 0 -8 7
-16 15 -20 19 -7 20 -50 1 -65 -22 -18 -66 -2 -87 33 -37 61 -18 145 38 167
29 11 73 -11 73 -36 0 -8 6 -15 14 -15 16 0 29 51 16 64 -16 16 -113 17 -145
2z"/>
<path d="M3659 8710 c-9 -5 -51 -13 -93 -17 -42 -4 -77 -12 -77 -17 0 -6 6
-11 13 -12 49 -10 72 -17 142 -39 43 -14 85 -25 92 -25 7 0 20 -7 28 -16 10
-9 24 -13 36 -9 16 5 20 15 20 53 0 47 -1 48 -47 70 -51 23 -88 27 -114 12z"/>
<path d="M16000 8657 c-27 -13 -40 -71 -21 -90 7 -7 7 -16 0 -29 -6 -10 -7
-27 -4 -38 3 -10 1 -21 -5 -25 -15 -9 -12 -41 6 -59 9 -10 33 -16 59 -16 55 0
98 32 98 74 0 35 -16 46 -70 46 -23 0 -45 5 -48 10 -4 6 6 10 23 10 44 0 85
36 80 71 -3 20 0 29 10 29 7 0 12 6 10 13 -6 17 -107 20 -138 4z m65 -52 c0
-23 -4 -30 -20 -30 -15 0 -21 8 -23 33 -3 30 -1 33 20 30 18 -2 23 -9 23 -33z
m9 -131 c24 -9 19 -33 -10 -44 -32 -13 -30 -13 -49 6 -28 29 13 56 59 38z"/>
<path d="M16193 8646 c-23 -20 -28 -32 -28 -71 0 -37 5 -51 24 -66 25 -21 81
-25 112 -9 32 17 22 32 -16 24 -37 -7 -65 7 -65 32 0 10 14 14 50 14 49 0 50
1 50 30 0 64 -75 91 -127 46z m75 -34 c3 -17 -1 -22 -21 -22 -31 0 -38 9 -26
32 13 25 43 19 47 -10z"/>
<path d="M16730 8663 c-34 -6 -47 -21 -27 -29 23 -8 24 -109 2 -118 -34 -13
-12 -26 45 -26 61 0 76 11 40 30 -20 11 -25 36 -14 78 6 21 34 32 34 12 0 -11
30 -14 30 -2 0 4 3 17 6 28 8 29 -22 39 -52 19 -21 -14 -24 -14 -24 0 0 8 -3
14 -7 14 -5 -1 -19 -4 -33 -6z"/>
<path d="M16920 8663 c-50 -19 -72 -80 -46 -131 17 -34 33 -42 81 -42 53 0 88
36 88 90 0 35 -6 48 -27 67 -26 22 -63 28 -96 16z m60 -42 c14 -28 12 -87 -4
-100 -18 -15 -44 -4 -52 22 -8 26 -8 73 1 87 10 17 44 11 55 -9z"/>
<path d="M17100 8663 c-8 -2 -21 -7 -29 -9 -11 -4 -11 -8 3 -22 10 -12 16 -36
16 -65 0 -28 6 -52 16 -61 17 -18 69 -21 79 -6 5 8 11 8 20 0 17 -14 65 -2 65
16 0 8 -4 14 -10 14 -5 0 -10 30 -12 68 l-3 67 -30 -3 c-37 -4 -54 -19 -32
-28 21 -8 23 -72 3 -99 -26 -36 -45 -12 -48 61 -3 67 -9 77 -38 67z"/>
<path d="M17335 8663 c-46 -9 -49 -12 -31 -31 22 -26 24 -197 1 -206 -34 -13
-12 -26 45 -26 63 0 73 7 40 28 -11 7 -20 23 -20 37 0 22 5 25 33 25 44 0 74
23 86 65 20 74 -27 132 -88 109 -16 -7 -33 -8 -38 -5 -4 4 -17 6 -28 4z m105
-83 c0 -42 -22 -73 -49 -68 -23 5 -28 90 -6 112 27 26 55 4 55 -44z"/>
<path d="M23224 8660 c-16 -6 -20 -15 -17 -34 6 -32 16 -33 35 -4 10 15 20 19
32 15 26 -10 15 -39 -18 -48 -55 -15 -82 -59 -54 -87 15 -15 75 -16 84 -1 5 8
9 8 14 -1 10 -17 60 -4 60 15 0 7 -4 17 -10 20 -5 3 -10 28 -10 55 0 39 -4 52
-22 64 -24 17 -61 20 -94 6z m66 -104 c0 -22 -29 -41 -42 -28 -8 8 -8 15 2 27
16 19 40 20 40 1z"/>
<path d="M23590 8660 c0 -5 7 -18 15 -28 9 -10 30 -48 47 -85 30 -65 31 -68
13 -87 -10 -11 -29 -20 -42 -20 -34 0 -27 -34 8 -38 34 -4 51 17 94 123 20 50
43 97 51 106 23 26 16 39 -19 39 -42 0 -51 -9 -33 -29 13 -14 13 -21 -2 -55
l-18 -39 -16 41 c-14 35 -14 43 -2 53 8 6 11 15 8 20 -7 12 -104 11 -104 -1z"/>
<path d="M8717 8533 c-5 -7 -6 -17 -2 -22 3 -5 1 -12 -5 -16 -5 -3 -10 -18 -9
-33 l0 -27 10 24 c9 23 10 23 29 6 19 -18 20 -17 20 8 0 19 -4 25 -14 21 -10
-4 -16 3 -18 23 -2 18 -6 24 -11 16z"/>
<path d="M8636 8505 c4 -8 7 -15 9 -15 2 0 5 7 9 15 3 9 0 15 -9 15 -9 0 -12
-6 -9 -15z"/>
<path d="M8675 8510 c4 -6 11 -8 16 -5 14 9 11 15 -7 15 -8 0 -12 -5 -9 -10z"/>
<path d="M8780 8479 c0 -5 5 -7 10 -4 6 3 10 8 10 11 0 2 -4 4 -10 4 -5 0 -10
-5 -10 -11z"/>
<path d="M8773 8444 c-15 -15 -17 -34 -4 -34 8 0 24 41 18 46 -1 1 -8 -4 -14
-12z"/>
<path d="M8790 8415 c0 -8 5 -15 10 -15 6 0 10 7 10 15 0 8 -4 15 -10 15 -5 0
-10 -7 -10 -15z"/>
<path d="M8921 8354 c0 -11 3 -14 6 -6 3 7 2 16 -1 19 -3 4 -6 -2 -5 -13z"/>
<path d="M2405 8280 c3 -5 8 -10 11 -10 2 0 4 5 4 10 0 6 -5 10 -11 10 -5 0
-7 -4 -4 -10z"/>
<path d="M2432 8229 c6 -16 15 -28 21 -26 21 7 18 24 -7 40 l-25 17 11 -31z"/>
<path d="M2224 8211 c3 -5 16 -11 28 -14 22 -6 22 -5 4 8 -22 17 -40 20 -32 6z"/>
<path d="M2310 8182 c0 -20 124 -111 136 -99 3 2 2 17 -2 31 -4 18 -12 26 -23
24 -10 -2 -32 9 -50 25 -32 26 -61 35 -61 19z"/>
<path d="M2190 8161 c0 -11 48 -24 61 -16 5 4 7 11 4 16 -8 12 -65 12 -65 0z"/>
<path d="M1710 8092 c0 -19 48 -68 57 -58 7 7 -13 39 -36 60 -21 19 -21 19
-21 -2z"/>
<path d="M2313 8086 c19 -19 40 -21 35 -3 -3 6 -15 14 -28 15 -21 4 -22 2 -7
-12z"/>
<path d="M2340 8016 c0 -2 7 -6 15 -10 8 -3 15 -1 15 4 0 6 -7 10 -15 10 -8 0
-15 -2 -15 -4z"/>
<path d="M2390 7985 c0 -11 -9 -15 -27 -13 -23 1 -73 -16 -73 -25 0 -1 27 -2
60 -2 67 0 92 15 67 39 -20 20 -27 20 -27 1z"/>
<path d="M1630 7984 c0 -3 19 -14 43 -24 24 -11 56 -29 71 -41 20 -16 30 -19
38 -11 8 8 6 13 -8 18 -10 4 -36 19 -57 33 -34 22 -87 37 -87 25z"/>
<path d="M2470 7975 c7 -8 16 -15 21 -15 5 0 6 7 3 15 -4 8 -13 15 -21 15 -13
0 -13 -3 -3 -15z"/>
<path d="M2610 7932 c0 -10 89 -37 96 -29 3 2 -2 10 -10 16 -19 16 -86 27 -86
13z"/>
<path d="M2450 7920 c-34 -8 -82 -55 -100 -97 -13 -32 11 -109 33 -105 9 2 17
-2 17 -8 0 -7 8 -9 20 -5 19 6 20 3 14 -67 -7 -92 -7 -84 2 -142 5 -37 4 -52
-7 -60 -8 -6 -19 -23 -26 -37 -10 -24 -18 -27 -85 -32 -40 -4 -88 -10 -106
-13 l-34 -7 3 43 c2 26 -1 45 -8 47 -7 3 -11 -9 -10 -32 1 -47 -11 -58 -51
-44 -26 9 -32 16 -32 39 0 34 22 54 50 45 11 -4 20 -2 20 4 0 6 -6 12 -12 12
-7 1 -19 2 -27 3 -8 0 -20 17 -27 36 -7 19 -13 29 -13 21 -1 -11 -12 -12 -47
-7 -28 3 -43 2 -39 -4 3 -6 16 -10 29 -10 26 0 56 -28 56 -53 0 -8 -4 -27 -10
-42 -9 -25 -11 -25 -34 -10 -14 9 -26 28 -28 43 l-3 27 -19 -22 c-25 -29 -50
-16 -74 37 -19 45 -27 49 -42 19 -9 -16 -8 -24 4 -38 9 -10 16 -22 16 -27 0
-5 10 -14 23 -19 16 -7 23 -20 25 -46 4 -48 -21 -60 -45 -21 -33 54 -67 69
-57 25 13 -59 15 -63 39 -63 18 0 26 -7 31 -24 9 -37 -4 -51 -28 -29 -20 18
-20 17 -17 -7 3 -20 10 -25 34 -25 27 0 30 3 27 28 -2 21 1 27 18 27 11 0 29
-5 40 -12 26 -17 75 1 76 27 0 11 3 33 7 48 l8 28 29 -18 c44 -26 44 -40 1
-90 -77 -87 -114 -210 -92 -308 13 -59 51 -137 83 -171 19 -22 19 -22 -2 -65
-12 -23 -33 -70 -45 -103 -18 -49 -27 -61 -46 -64 -64 -6 -133 -26 -173 -48
-48 -27 -150 -131 -161 -163 -3 -11 -32 -30 -68 -46 -41 -19 -56 -30 -44 -32
10 -3 29 2 42 11 36 24 46 21 35 -10 -30 -77 2 -207 72 -295 36 -46 39 -53 28
-78 -20 -48 -5 -74 55 -98 63 -26 74 -24 97 17 15 27 22 30 65 30 47 0 48 -1
49 -31 2 -44 21 -74 60 -93 43 -20 48 -20 99 -1 l40 16 0 69 c0 60 -3 70 -17
70 -28 0 -21 12 23 45 45 33 129 122 129 137 0 5 9 27 19 49 36 74 13 244 -41
304 -26 29 -58 79 -58 90 0 3 6 5 13 5 8 0 22 9 32 20 10 11 38 30 61 42 24
12 41 25 38 30 -3 4 1 8 8 8 15 0 157 58 173 70 6 4 25 11 44 15 18 4 48 15
65 25 17 10 72 28 121 40 50 12 101 30 115 40 47 33 306 150 332 150 11 0 48
33 48 42 0 8 -19 3 -55 -13 -11 -4 -94 -38 -185 -75 -206 -82 -260 -104 -285
-114 -11 -5 -45 -19 -75 -30 -58 -23 -68 -28 -140 -58 -25 -11 -70 -29 -100
-40 -30 -11 -104 -41 -164 -66 -60 -25 -111 -46 -114 -46 -10 0 9 65 29 96
l21 34 98 0 c109 0 160 13 230 61 126 86 169 244 119 439 -3 11 6 16 31 18 74
7 120 78 70 110 -17 10 -30 9 -78 -9 -31 -11 -64 -23 -72 -25 -9 -3 -29 8 -45
25 -25 25 -30 38 -30 78 0 40 -4 50 -22 58 -33 14 -28 32 13 47 19 7 41 24 47
38 11 20 19 25 47 23 31 -2 35 1 35 22 0 13 -3 21 -7 18 -15 -8 -8 25 7 37 16
13 65 6 65 -10 0 -6 4 -10 9 -10 5 0 0 18 -12 39 -21 37 -21 40 -4 58 21 24
22 39 2 47 -10 4 -15 -1 -15 -14 0 -11 -4 -20 -10 -20 -5 0 -10 -10 -10 -21 0
-39 -61 -66 -74 -33 -18 46 9 73 55 59 20 -7 21 -5 14 21 -4 16 -9 38 -10 49
-5 32 -24 75 -33 75 -14 0 -42 -35 -42 -53 0 -8 9 -19 20 -22 11 -3 20 -13 20
-20 0 -8 -9 -19 -20 -25 -17 -9 -20 -8 -20 12 -1 22 -1 22 -21 -4 -29 -39 -49
-36 -49 6 0 32 -2 35 -40 41 -62 10 -66 36 -8 50 23 6 26 4 21 -13 -2 -11 0
-23 6 -26 16 -11 13 34 -4 68 -14 27 -14 31 0 38 8 5 15 13 15 18 0 11 -21 11
-70 0z m58 -259 c23 -14 10 -46 -21 -49 -23 -3 -27 0 -27 22 0 21 10 32 30 35
3 0 11 -3 18 -8z m93 -40 c19 -33 14 -45 -23 -55 -35 -8 -50 15 -36 56 13 36
38 36 59 -1z m-87 -124 c-18 -10 -34 -1 -34 22 0 29 13 33 32 9 14 -20 15 -24
2 -31z m-490 -134 c11 -27 -5 -83 -23 -83 -28 0 -42 15 -48 53 -9 55 0 68 36
56 16 -6 32 -17 35 -26z m334 -36 c8 -10 -4 -46 -48 -142 -33 -72 -69 -148
-81 -170 -12 -22 -40 -74 -62 -115 -22 -41 -41 -77 -43 -79 -8 -9 -37 26 -62
73 -35 69 -37 186 -3 262 39 89 129 157 228 174 26 4 51 8 54 9 4 0 11 -5 17
-12z m158 -58 c42 -26 43 -39 4 -39 -19 0 -30 -5 -30 -14 0 -12 -20 -26 -39
-26 -13 0 -10 43 5 71 17 35 18 35 60 8z m-86 -89 c0 -5 -5 -10 -11 -10 -5 0
-7 5 -4 10 3 6 8 10 11 10 2 0 4 -4 4 -10z m199 -65 c8 -22 15 -74 15 -115 1
-60 -4 -84 -22 -120 -30 -58 -75 -105 -132 -138 -40 -24 -54 -27 -126 -25 -80
2 -164 25 -164 44 0 18 143 284 159 296 21 16 159 84 191 94 47 14 64 6 79
-36z m-646 -625 c-5 -19 -52 -60 -68 -60 -4 0 -36 -13 -72 -30 -35 -16 -70
-30 -77 -30 -6 0 -17 -5 -24 -12 -9 -9 -15 -9 -23 -1 -8 8 0 22 30 52 58 58
141 98 208 100 26 1 30 -2 26 -19z m226 -88 c48 -47 63 -69 76 -116 20 -67 15
-108 -21 -183 -25 -52 -104 -133 -130 -133 -17 0 -19 20 -1 21 9 0 9 2 -1 6
-6 2 -10 9 -7 14 11 17 -16 91 -35 96 -21 6 -40 51 -40 97 0 67 66 256 89 256
6 0 37 -26 70 -58z m-299 -69 c-18 -37 -54 -124 -82 -193 -71 -176 -65 -167
-95 -138 -48 45 -67 96 -67 183 -1 84 19 137 53 149 9 3 61 23 116 44 55 21
101 35 103 31 2 -4 -11 -39 -28 -76z"/>
<path d="M2050 7875 c-10 -12 -10 -15 3 -15 19 0 31 16 18 24 -5 3 -14 -1 -21
-9z"/>
<path d="M1695 7841 c50 -24 55 -25 55 -6 0 8 -6 15 -14 15 -7 0 -29 2 -47 5
l-34 5 40 -19z"/>
<path d="M2010 7850 c0 -5 5 -10 11 -10 5 0 7 5 4 10 -3 6 -8 10 -11 10 -2 0
-4 -4 -4 -10z"/>
<path d="M1851 7802 c-7 -13 -11 -26 -8 -28 8 -8 29 25 25 38 -3 8 -9 4 -17
-10z"/>
<path d="M1919 7786 c5 -11 18 -23 31 -24 18 -3 21 0 16 13 -3 9 -6 20 -6 25
0 4 -11 8 -24 8 -21 0 -23 -4 -17 -22z"/>
<path d="M1656 7728 c-8 -12 -13 -25 -10 -30 6 -9 62 31 63 45 2 16 -39 6 -53
-15z"/>
<path d="M1835 7731 c-11 -5 -29 -18 -39 -30 -11 -11 -26 -21 -35 -21 -9 -1
-26 -9 -38 -19 -18 -15 -23 -30 -23 -68 l0 -48 20 33 c11 17 24 32 30 32 5 0
20 16 32 35 26 39 38 42 73 19 22 -15 38 -43 16 -30 -4 3 -13 -5 -19 -18 -9
-19 -7 -28 9 -45 25 -27 39 -27 39 0 0 12 4 17 11 13 6 -3 9 -17 6 -30 -7 -36
9 -53 27 -29 9 12 11 24 5 30 -5 5 -9 23 -9 41 0 26 5 33 27 39 20 5 24 8 13
15 -8 5 -21 5 -29 0 -22 -12 -72 16 -65 35 4 8 1 21 -5 29 -6 7 -8 16 -4 19 9
9 -17 8 -42 -2z"/>
<path d="M2025 7710 c-3 -5 1 -10 10 -10 9 0 13 5 10 10 -3 6 -8 10 -10 10 -2
0 -7 -4 -10 -10z"/>
<path d="M2070 7678 c0 -8 4 -18 9 -23 5 -6 11 -19 14 -30 3 -13 5 -10 6 11 0
17 -6 37 -14 44 -12 10 -15 10 -15 -2z"/>
<path d="M7310 7580 c-65 -50 -119 -87 -284 -194 -49 -32 -138 -104 -197 -159
-126 -117 -287 -256 -341 -292 -20 -13 -87 -61 -149 -105 -62 -44 -141 -95
-176 -112 l-64 -31 -24 23 c-14 13 -25 30 -25 37 0 25 -60 160 -78 176 -15 13
-26 13 -97 0 -44 -8 -85 -20 -91 -26 -14 -15 -44 -135 -44 -175 0 -16 -3 -44
-6 -62 l-7 -32 -86 7 c-77 6 -135 17 -241 46 -19 5 -55 13 -80 18 -101 20
-190 41 -231 56 -24 9 -78 25 -119 36 -41 11 -79 24 -85 29 -5 4 -35 15 -65
23 -30 9 -98 30 -150 47 -52 17 -108 36 -125 41 -97 32 -178 48 -196 39 -10
-6 -37 -7 -61 -4 -33 6 -54 18 -93 56 -27 28 -62 56 -76 63 -26 14 -26 15 -24
119 1 66 6 110 14 119 7 9 8 18 3 21 -5 3 -12 20 -16 38 -4 21 -9 29 -14 21
-5 -8 -8 2 -9 23 -1 40 -20 84 -37 84 -6 0 -6 -4 1 -11 13 -13 -2 -90 -20
-101 -17 -12 13 -29 38 -22 20 5 20 5 1 -10 -11 -9 -23 -16 -26 -16 -4 0 -6
-15 -6 -34 1 -24 5 -32 15 -28 8 3 12 1 9 -4 -23 -39 -47 -105 -42 -118 8 -21
24 -20 25 2 0 11 2 12 6 4 3 -7 -1 -19 -7 -28 -7 -8 -10 -17 -7 -21 4 -3 2
-12 -4 -20 -9 -10 -8 -17 1 -28 10 -12 10 -15 0 -15 -7 0 -10 -6 -7 -14 3 -7
1 -18 -5 -24 -5 -5 -14 -58 -19 -118 -5 -60 -13 -118 -18 -129 -13 -27 -51
-262 -71 -427 -5 -43 -11 -86 -14 -95 -3 -10 -13 -76 -22 -148 -24 -193 -51
-384 -59 -420 -2 -11 -21 -37 -41 -58 -35 -36 -37 -40 -40 -118 -1 -44 -8 -86
-14 -94 -7 -9 -9 -22 -4 -32 14 -33 31 -134 22 -139 -4 -3 -3 -14 3 -25 5 -11
8 -33 5 -49 -2 -17 1 -36 7 -43 7 -6 12 -25 13 -42 1 -38 23 -95 36 -95 6 0 6
-6 -2 -15 -6 -8 -9 -19 -5 -25 3 -5 1 -10 -6 -10 -8 0 -5 -7 6 -20 14 -15 17
-36 17 -100 0 -44 2 -80 6 -80 11 0 8 -64 -3 -72 -7 -5 -7 -8 0 -8 6 0 9 -21
6 -51 -2 -28 1 -49 6 -46 4 3 9 -25 10 -61 2 -45 7 -70 17 -77 15 -12 24 -73
13 -92 -4 -6 1 -14 10 -17 12 -5 14 -9 5 -18 -17 -17 -15 -53 5 -69 9 -8 14
-9 10 -3 -10 18 20 25 33 9 7 -8 10 -22 6 -30 -3 -9 -2 -13 4 -10 6 3 11 -6
12 -22 3 -54 4 -58 13 -73 5 -8 11 -35 13 -60 1 -25 7 -46 12 -48 5 -2 6 -10
3 -18 -3 -9 0 -14 8 -12 9 2 14 -17 17 -71 4 -78 -2 -91 -44 -91 -20 0 -22 -4
-19 -61 2 -34 7 -65 12 -68 18 -13 14 -45 -9 -64 -12 -10 -17 -16 -9 -12 8 5
6 -3 -5 -21 -11 -15 -14 -25 -7 -21 9 6 12 -15 11 -88 0 -53 -3 -93 -6 -91 -2
3 -13 1 -23 -5 -14 -7 -19 -21 -19 -54 0 -35 -5 -48 -26 -64 -14 -11 -23 -25
-19 -31 7 -12 5063 -14 5080 -2 13 9 18 35 5 27 -5 -3 -10 1 -10 10 0 10 -6
15 -13 12 -10 -4 -13 2 -9 18 4 21 1 23 -26 19 -35 -6 -49 8 -27 26 8 7 15 9
15 4 0 -4 6 1 14 11 16 23 1 44 -26 37 -16 -4 -23 7 -19 31 1 5 -3 6 -9 2 -5
-3 -10 -1 -10 4 0 6 -7 11 -15 11 -16 0 -16 1 -17 73 0 44 -2 47 -27 48 -14 1
-30 1 -34 0 -5 -1 -6 3 -2 9 3 6 -1 17 -9 26 -9 8 -16 13 -16 10 0 -3 -9 2
-20 12 -12 9 -22 15 -24 12 -2 -3 -11 2 -21 10 -17 14 -17 14 -7 -7 10 -18 9
-22 -6 -25 -9 -2 -34 -1 -54 3 -20 3 -42 3 -49 -2 -7 -4 -20 -2 -29 4 -17 10
-17 11 0 29 14 15 30 19 66 18 70 -2 71 -2 77 20 3 13 0 20 -10 20 -8 0 -12 4
-9 8 2 4 -12 9 -32 10 -20 2 -38 7 -40 12 -2 5 -13 5 -28 0 -22 -9 -28 -6 -25
12 0 5 -2 7 -7 6 -15 -4 -52 23 -46 34 4 6 3 8 -3 5 -15 -9 -30 13 -27 41 1
13 -6 27 -17 33 -13 6 -19 6 -19 -1 0 -5 8 -10 18 -10 13 0 14 -2 3 -9 -8 -6
-11 -16 -6 -31 5 -17 4 -21 -5 -15 -9 5 -11 4 -6 -3 4 -7 3 -19 -2 -28 -8 -14
-10 -14 -24 0 -9 8 -18 12 -22 9 -3 -4 -6 -1 -6 6 0 7 -4 10 -9 7 -5 -3 -11 1
-15 9 -3 8 -12 15 -21 15 -8 0 -15 5 -15 11 0 5 5 7 11 3 8 -5 8 -1 0 13 -6
11 -9 22 -8 24 1 2 -3 -2 -10 -10 -7 -8 -10 -17 -8 -21 3 -4 -4 -10 -15 -13
-11 -3 -23 -1 -26 5 -3 5 3 12 15 15 12 3 21 12 21 20 0 8 -4 12 -8 9 -5 -3
-9 1 -9 9 0 8 2 13 5 10 7 -7 32 23 32 39 0 11 -10 16 -34 16 -29 0 -36 -5
-44 -29 -8 -23 -15 -28 -31 -24 -13 3 -21 1 -21 -6 0 -7 -5 -9 -11 -5 -8 4 -7
9 2 15 8 5 10 9 4 9 -5 0 -4 4 4 9 17 11 5 31 -19 31 -24 0 -37 -20 -13 -21
10 0 13 -3 7 -5 -6 -3 -22 0 -35 5 l-24 10 23 7 c21 6 31 24 13 24 -8 0 -25
56 -22 72 0 4 -7 4 -16 1 -12 -5 -14 -3 -8 8 5 7 8 29 6 47 -2 26 0 32 11 26
11 -7 11 -5 0 9 -8 9 -11 20 -8 26 3 5 0 11 -6 14 -10 3 -8 10 5 25 12 13 15
22 8 27 -15 9 -14 55 2 55 8 0 8 3 -2 9 -11 7 -12 13 -3 23 13 16 -2 38 -25
38 -8 0 -18 12 -24 28 -13 33 -17 182 -5 182 4 0 5 12 1 28 -4 15 -7 38 -6 52
8 120 3 227 -14 243 -8 8 -11 18 -7 22 4 4 3 6 -3 5 -34 -7 -51 24 -20 36 10
4 12 11 6 22 -5 10 -9 19 -9 22 0 3 -5 17 -11 32 -8 21 -6 38 5 70 9 24 16 60
15 80 0 20 4 40 9 43 6 4 7 13 1 23 -6 12 -3 24 10 41 11 13 16 27 11 30 -12
7 -3 71 9 71 12 0 11 42 -1 75 -6 15 -13 61 -16 103 -4 48 -12 86 -23 102 -16
22 -31 104 -62 315 -5 33 -11 71 -13 85 -15 76 -28 152 -36 205 -6 33 -21 112
-35 175 -35 156 -53 248 -59 290 -13 92 -123 534 -146 585 -5 11 -20 49 -33
85 -38 103 -140 251 -171 250 -6 -1 -40 -23 -76 -50z m67 -2416 c-3 -3 -12 -4
-19 -1 -8 3 -5 6 6 6 11 1 17 -2 13 -5z m-3175 -71 c-46 -25 -140 -121 -163
-166 -36 -69 -42 -135 -20 -204 23 -72 41 -109 70 -142 12 -13 19 -26 16 -29
-6 -6 -65 55 -65 67 0 6 -8 16 -19 23 -10 7 -26 36 -35 63 l-16 50 5 -45 c5
-42 4 -44 -10 -26 -18 23 -19 50 -4 78 8 14 7 28 -2 50 -11 27 -10 32 5 44 13
9 17 21 14 38 -3 14 -1 23 3 20 5 -3 9 2 9 12 0 9 9 26 19 38 11 11 31 34 45
50 27 30 140 95 166 96 8 0 0 -8 -18 -17z m3293 -14 c-4 -6 3 -20 15 -31 12
-11 18 -23 15 -27 -4 -3 -17 7 -30 23 -23 29 -24 46 -4 46 6 0 7 -5 4 -11z
m-107 -33 c10 -9 23 -16 28 -16 21 0 57 -65 62 -110 6 -69 -8 -106 -104 -266
-91 -153 -140 -205 -239 -256 -22 -11 -57 -36 -77 -56 -21 -20 -38 -31 -38
-26 0 18 63 75 133 121 90 60 117 94 195 253 37 74 77 150 89 169 32 48 30 95
-4 118 -49 34 -153 74 -180 71 -33 -4 -105 -89 -195 -233 -73 -116 -90 -152
-83 -175 3 -11 -1 -20 -11 -24 -12 -4 -15 -15 -12 -36 3 -18 0 -30 -6 -30 -7
0 -10 21 -8 56 4 54 12 73 89 199 7 11 15 27 20 35 23 47 126 191 150 210 25
19 36 22 101 18 48 -3 78 -11 90 -22z m-474 -48 c-88 -143 -146 -204 -82 -87
29 53 90 129 104 129 2 0 -8 -19 -22 -42z m-2136 -16 c3 -10 -5 -13 -29 -10
-18 2 -34 9 -37 16 -3 10 5 13 29 10 18 -2 34 -9 37 -16z m-408 -3 c64 -10
195 -48 258 -75 18 -8 39 -14 47 -14 8 0 15 -3 15 -7 0 -5 18 -28 40 -51 52
-57 52 -74 0 -22 -51 51 -96 73 -223 110 -159 46 -300 45 -326 -3 -18 -33 -29
-135 -20 -175 10 -44 42 -71 149 -126 126 -65 283 -114 373 -118 39 -1 38 -2
-13 -7 -64 -7 -128 6 -276 55 -129 42 -153 54 -205 101 -69 63 -82 111 -58
222 14 67 35 90 94 106 62 17 66 17 145 4z m1153 -35 c110 -25 220 -86 300
-169 75 -76 96 -111 122 -199 22 -74 15 -141 -22 -231 -31 -76 -43 -79 -18 -5
26 79 23 176 -8 243 -31 68 -104 149 -167 185 -25 14 -63 38 -85 54 -46 32
-128 57 -298 89 -87 17 -114 25 -101 32 9 5 37 7 63 3 25 -3 53 -1 61 4 22 14
71 12 153 -6z m-505 -12 c3 -10 -5 -13 -29 -10 -18 2 -34 9 -37 16 -3 10 5 13
29 10 18 -2 34 -9 37 -16z m-263 -53 c11 -17 0 -20 -21 -4 -17 13 -17 14 -2
15 9 0 20 -5 23 -11z m678 -86 c5 -7 12 -11 16 -9 4 3 13 -28 20 -68 11 -63
11 -83 -4 -157 -20 -100 -70 -258 -88 -279 -35 -41 -78 -72 -111 -80 -48 -11
-53 3 -16 41 28 30 39 59 22 59 -19 0 -51 -32 -46 -45 7 -17 -7 -20 -21 -6 -6
6 -30 11 -54 13 -30 1 -45 7 -48 18 -3 9 -31 24 -71 37 -37 11 -67 26 -67 33
0 8 -26 20 -60 29 -33 9 -60 21 -60 26 0 6 -3 15 -7 21 -5 7 3 11 22 11 46 0
118 32 141 64 28 39 17 51 -37 43 -49 -7 -44 -14 -49 74 -1 15 -5 60 -9 99 -6
66 -5 73 13 83 53 28 106 -21 116 -108 9 -86 14 -102 31 -102 8 0 18 -8 21
-17 6 -14 8 -12 14 10 9 33 -13 122 -36 147 -11 12 -14 26 -10 39 9 28 63 28
98 1 l26 -21 21 21 c30 30 58 25 101 -19 l39 -39 0 -87 c0 -77 2 -86 15 -75
20 17 20 121 0 160 -18 34 -12 53 20 70 13 7 21 18 18 26 -7 18 28 7 40 -13z
m130 -6 c-3 -13 -15 -37 -28 -53 -24 -29 -24 -29 -18 -4 5 22 40 80 47 80 2 0
1 -11 -1 -23z m1313 9 c9 -23 -26 -67 -50 -64 -24 3 -34 42 -16 64 16 18 59
18 66 0z m-2931 -6 c3 -5 1 -10 -4 -10 -6 0 -11 5 -11 10 0 6 2 10 4 10 3 0 8
-4 11 -10z m1645 -40 c-17 -32 -24 -16 -9 20 9 19 15 25 17 16 2 -8 -2 -25 -8
-36z m105 4 c61 -40 144 -124 168 -169 31 -59 28 -179 -6 -255 -43 -95 -100
-157 -179 -195 -70 -34 -213 -74 -224 -63 -5 6 8 67 51 253 8 33 24 104 35
157 11 53 29 125 40 160 11 35 20 68 20 75 0 28 21 63 37 63 10 0 36 -12 58
-26z m-995 -19 c0 -8 -4 -15 -10 -15 -5 0 -10 7 -10 15 0 8 5 15 10 15 6 0 10
-7 10 -15z m-820 -40 c0 -17 -28 -20 -50 -4 -12 8 -10 9 8 4 13 -4 22 -2 22 4
0 6 5 11 10 11 6 0 10 -7 10 -15z m52 -20 c-12 -22 -27 -2 -18 22 5 12 10 13
17 6 7 -7 8 -17 1 -28z m742 -12 c-3 -12 -12 -24 -19 -27 -15 -6 -8 35 9 46
14 9 16 6 10 -19z m2251 -23 c3 -5 1 -10 -4 -10 -6 0 -11 5 -11 10 0 6 2 10 4
10 3 0 8 -4 11 -10z m-25 -30 c0 -5 -4 -10 -10 -10 -5 0 -10 5 -10 10 0 6 5
10 10 10 6 0 10 -4 10 -10z m-180 -23 c0 -29 -34 -62 -55 -54 -33 13 -8 77 30
77 20 0 25 -5 25 -23z m-2880 3 c0 -5 -2 -10 -4 -10 -3 0 -8 5 -11 10 -3 6 -1
10 4 10 6 0 11 -4 11 -10z m3234 -26 c4 -11 1 -14 -11 -12 -9 2 -18 9 -21 16
-6 18 25 15 32 -4z m-125 -88 c1 -42 -5 -29 -12 24 -4 30 -3 38 3 25 5 -11 9
-33 9 -49z m-2154 44 c-11 -5 -27 -9 -35 -9 -9 0 -8 4 5 9 11 5 27 9 35 9 9 0
8 -4 -5 -9z m2089 -75 c26 -36 52 -65 57 -65 5 0 9 -6 9 -13 0 -7 13 -27 30
-45 31 -35 31 -63 -2 -59 -26 3 -46 -41 -23 -50 52 -19 160 32 167 80 4 31 30
28 39 -5 12 -45 -5 -150 -26 -162 -10 -6 -30 -22 -43 -36 -13 -14 -32 -34 -43
-45 -10 -12 -19 -28 -19 -36 0 -9 -11 -33 -25 -53 -26 -38 -36 -126 -15 -126
6 0 10 -4 10 -10 0 -5 -7 -7 -15 -4 -8 4 -33 -1 -55 -10 -24 -10 -52 -14 -68
-10 -40 10 -229 101 -293 142 -60 38 -129 125 -129 163 0 32 28 59 62 59 22 0
31 -6 39 -27 11 -29 67 -93 81 -93 5 0 -10 29 -32 64 -58 91 -52 157 15 174
20 6 31 18 41 47 12 37 45 75 64 75 20 0 41 -34 36 -59 -4 -17 3 -41 22 -72
31 -53 71 -104 76 -98 2 2 6 23 9 46 4 34 1 45 -15 60 -12 10 -36 41 -54 70
-40 61 -44 108 -14 141 36 38 61 29 114 -43z m-380 -29 c-36 -55 -203 -277
-219 -291 -23 -20 -62 -111 -79 -184 -23 -105 -21 -217 5 -288 24 -63 125
-177 166 -188 13 -3 23 -10 23 -15 0 -16 -90 34 -138 75 -127 109 -157 337
-74 553 22 56 89 162 104 162 4 0 8 5 8 12 0 17 41 58 57 58 8 0 49 36 91 79
42 44 79 78 81 76 2 -2 -10 -24 -25 -49z m-1279 -363 c79 -23 155 -33 225 -28
l65 4 -55 -10 c-94 -18 -273 10 -310 48 -13 14 -13 15 5 8 11 -4 43 -14 70
-22z m452 21 c-3 -3 -12 -4 -19 -1 -8 3 -5 6 6 6 11 1 17 -2 13 -5z m1563 -19
c0 -8 -4 -15 -10 -15 -5 0 -7 7 -4 15 4 8 8 15 10 15 2 0 4 -7 4 -15z m-1613
-1 c-3 -3 -12 -4 -19 -1 -8 3 -5 6 6 6 11 1 17 -2 13 -5z m-44 -11 c-7 -2 -19
-2 -25 0 -7 3 -2 5 12 5 14 0 19 -2 13 -5z m805 -36 c4 -21 -42 -33 -71 -19
-20 11 -20 11 6 6 20 -5 27 -2 27 9 0 8 -6 18 -12 20 -7 3 1 4 17 2 18 -1 31
-9 33 -18z m822 -17 c-16 -30 -22 -19 -7 13 6 14 13 22 15 17 2 -5 -2 -19 -8
-30z m-840 -73 c41 -22 100 -55 131 -73 31 -18 98 -54 150 -80 107 -53 214
-114 248 -142 l24 -19 -77 -51 c-134 -90 -270 -114 -402 -70 -121 40 -208 144
-221 268 -6 58 9 167 28 202 11 20 16 19 119 -35z m704 -200 c-20 -34 -55 -82
-78 -106 -46 -48 -139 -121 -156 -121 -6 0 -21 -6 -33 -14 -12 -7 -35 -16 -52
-20 -16 -3 3 10 44 31 101 49 214 160 267 263 30 58 40 70 42 52 2 -12 -13
-49 -34 -85z m1529 -174 c-7 -2 -19 -2 -25 0 -7 3 -2 5 12 5 14 0 19 -2 13 -5z
m44 1 c-3 -3 -12 -4 -19 -1 -8 3 -5 6 6 6 11 1 17 -2 13 -5z m-2210 -110 c-3
-3 -12 -4 -19 -1 -8 3 -5 6 6 6 11 1 17 -2 13 -5z m256 -1 c-7 -2 -19 -2 -25
0 -7 3 -2 5 12 5 14 0 19 -2 13 -5z m-2748 -163 c-3 -5 -14 -10 -23 -9 -14 0
-13 2 3 9 27 11 27 11 20 0z"/>
<path d="M5213 4689 c4 -13 7 -51 7 -83 0 -45 3 -57 11 -49 14 14 3 140 -13
149 -8 5 -9 -1 -5 -17z"/>
<path d="M5142 4515 c-7 -14 -16 -25 -21 -25 -5 0 -14 -14 -21 -31 -7 -17 -29
-41 -49 -55 -23 -16 -30 -24 -18 -24 19 0 137 116 137 136 0 24 -17 23 -28 -1z"/>
<path d="M6840 4780 c-8 -5 -11 -12 -7 -16 4 -4 13 -2 19 4 15 15 7 24 -12 12z"/>
<path d="M6685 4579 c-9 -14 -2 -20 14 -10 8 6 9 11 3 15 -6 3 -14 1 -17 -5z"/>
<path d="M6797 4144 c-3 -4 -2 -15 4 -26 8 -15 19 -18 52 -16 47 3 53 20 10
29 -15 4 -35 9 -44 13 -8 4 -18 4 -22 0z"/>
<path d="M6732 4118 c3 -7 13 -15 24 -17 16 -3 17 -1 5 13 -16 19 -34 21 -29
4z"/>
<path d="M6817 4010 c-4 -17 0 -20 29 -20 40 0 45 16 8 30 -33 13 -31 13 -37
-10z"/>
<path d="M6716 4011 c5 -5 23 -12 39 -16 29 -6 29 -6 11 9 -21 17 -67 23 -50
7z"/>
<path d="M2122 7568 c-17 -17 -15 -28 7 -28 11 0 27 -7 36 -16 27 -28 25 -11
-4 23 -21 25 -30 30 -39 21z"/>
<path d="M1595 7555 c21 -17 37 -15 43 3 2 8 -8 12 -30 12 -31 -1 -32 -1 -13
-15z"/>
<path d="M1545 7490 c-6 -10 15 -60 26 -60 18 0 50 -46 45 -64 -3 -11 -1 -25
5 -32 14 -17 0 -44 -23 -44 -10 0 -16 -5 -13 -10 4 -6 10 -8 15 -5 16 10 21
-29 6 -41 -9 -6 -16 -16 -16 -21 0 -6 -7 -16 -15 -23 -22 -18 -19 -39 5 -33
12 3 20 14 20 27 0 12 9 32 20 44 11 12 20 29 20 40 0 10 5 23 10 28 7 7 6 22
-5 47 -8 20 -15 45 -15 55 0 11 -7 25 -15 32 -8 7 -12 16 -10 21 3 4 -3 12
-12 18 -16 9 -15 10 6 11 31 0 25 5 -16 13 -18 4 -35 2 -38 -3z"/>
<path d="M2181 7464 c0 -11 3 -14 6 -6 3 7 2 16 -1 19 -3 4 -6 -2 -5 -13z"/>
<path d="M2259 7432 c-14 -6 -14 -9 -4 -19 10 -9 14 -8 18 8 3 10 4 19 4 18
-1 0 -9 -3 -18 -7z"/>
<path d="M1441 7401 c-13 -23 -7 -29 24 -23 28 5 31 12 13 30 -17 17 -26 15
-37 -7z"/>
<path d="M1421 7317 c-21 -34 -31 -137 -13 -137 4 0 7 22 7 49 0 39 5 55 24
75 18 19 22 29 14 37 -7 7 -17 0 -32 -24z"/>
<path d="M1527 7324 c-3 -3 -4 -11 -1 -18 3 -7 -7 -18 -21 -24 -21 -10 -24
-15 -16 -31 6 -10 7 -21 4 -25 -3 -3 2 -6 11 -6 14 0 17 6 13 26 -3 18 1 29
14 37 11 7 19 17 19 24 0 14 -15 25 -23 17z"/>
<path d="M1720 7321 c0 -6 5 -13 10 -16 6 -3 10 1 10 9 0 9 -4 16 -10 16 -5 0
-10 -4 -10 -9z"/>
<path d="M1777 7253 c-3 -5 -1 -18 4 -30 10 -28 52 -33 42 -5 -13 35 -36 53
-46 35z"/>
<path d="M1690 7200 c0 -5 5 -10 10 -10 6 0 10 5 10 10 0 6 -4 10 -10 10 -5 0
-10 -4 -10 -10z"/>
<path d="M1433 7183 c-21 -11 -33 -24 -33 -37 0 -16 3 -17 12 -8 7 7 22 12 35
12 18 0 23 6 23 25 0 14 -1 25 -2 24 -2 0 -18 -8 -35 -16z"/>
<path d="M16573 7153 c-24 -5 -28 -13 -14 -28 5 -6 12 -20 16 -32 5 -20 3 -23
-20 -23 -38 0 -84 -27 -95 -56 -26 -69 3 -124 64 -124 19 0 38 5 42 11 5 8 9
8 14 -1 5 -8 18 -10 39 -5 32 7 38 14 21 31 -5 5 -11 59 -12 119 -3 117 -4
118 -55 108z m0 -162 c-4 -75 -53 -97 -68 -30 -10 44 11 81 44 77 24 -3 26 -7
24 -47z"/>
<path d="M15819 7127 c-41 -28 -59 -60 -59 -110 0 -50 23 -93 60 -112 33 -17
96 -20 134 -5 22 8 26 16 26 50 0 22 5 40 10 40 6 0 10 7 10 15 0 11 -12 15
-50 15 -38 0 -50 -4 -50 -15 0 -8 7 -15 15 -15 10 0 15 -10 15 -34 0 -58 -58
-58 -96 -1 -19 29 -22 102 -5 133 25 47 101 48 116 3 10 -33 35 -26 35 9 0 24
-6 33 -26 40 -43 17 -99 12 -135 -13z"/>
<path d="M23084 7135 c-10 -24 12 -42 34 -29 24 16 21 38 -6 42 -13 2 -25 -3
-28 -13z"/>
<path d="M5840 7106 c0 -37 5 -42 29 -27 12 7 10 14 -8 36 l-21 28 0 -37z"/>
<path d="M1480 7091 c0 -17 4 -22 16 -17 9 3 22 6 30 6 8 0 14 8 14 19 0 14
-7 18 -30 17 -24 -1 -30 -5 -30 -25z"/>
<path d="M1401 7058 c-1 -22 3 -28 21 -28 19 0 20 2 6 13 -9 6 -18 19 -21 27
-3 8 -6 3 -6 -12z"/>
<path d="M16074 7058 c-48 -23 -59 -104 -19 -143 26 -27 80 -34 116 -15 33 18
22 31 -22 24 -30 -5 -43 -3 -50 7 -19 30 -10 39 41 39 47 0 50 2 50 25 0 14
-11 37 -25 50 -25 26 -56 31 -91 13z m64 -46 c3 -18 -1 -22 -22 -22 -31 0 -42
16 -25 36 17 21 43 13 47 -14z"/>
<path d="M16250 7063 c-34 -6 -47 -21 -27 -29 23 -8 24 -112 2 -120 -32 -13
-13 -24 40 -24 52 0 73 14 40 26 -18 7 -20 65 -5 95 13 23 46 25 54 3 11 -29
6 -81 -9 -94 -26 -22 -16 -30 35 -30 47 0 63 11 40 25 -5 3 -10 25 -10 48 0
23 -3 52 -6 63 -8 30 -47 46 -81 33 -19 -7 -29 -7 -31 0 -2 6 -7 10 -10 10 -4
-1 -18 -4 -32 -6z"/>
<path d="M16714 7058 c-48 -23 -59 -104 -19 -143 26 -27 80 -34 116 -15 33 18
22 31 -22 24 -30 -5 -43 -3 -50 7 -19 30 -10 39 41 39 47 0 50 2 50 25 0 14
-11 37 -25 50 -25 26 -56 31 -91 13z m64 -46 c3 -18 -1 -22 -22 -22 -31 0 -42
16 -25 36 17 21 43 13 47 -14z"/>
<path d="M16888 7063 c-26 -4 -41 -33 -18 -33 6 0 10 -24 10 -54 0 -30 -4 -58
-10 -61 -24 -15 -6 -25 45 -25 60 0 66 6 34 33 -16 14 -19 25 -14 50 9 41 21
55 37 39 21 -21 38 -13 38 17 0 34 -22 46 -53 30 -16 -9 -22 -9 -25 0 -2 6 -7
10 -10 10 -4 -1 -19 -4 -34 -6z"/>
<path d="M22630 7063 c-8 -2 -21 -7 -29 -9 -11 -4 -11 -8 3 -22 10 -12 16 -36
16 -65 0 -28 6 -52 16 -61 17 -18 69 -21 79 -6 5 8 11 8 20 0 17 -14 65 -2 65
16 0 8 -4 14 -10 14 -5 0 -10 30 -12 68 l-3 67 -30 -3 c-37 -4 -54 -19 -32
-28 21 -8 23 -72 3 -99 -26 -36 -45 -12 -48 61 -3 67 -9 77 -38 67z"/>
<path d="M22865 7063 c-46 -9 -49 -12 -31 -31 21 -24 22 -107 1 -116 -32 -12
-13 -26 35 -26 38 0 50 4 50 15 0 8 -4 15 -10 15 -16 0 -12 86 5 100 28 23 45
4 45 -49 0 -27 -4 -53 -10 -56 -23 -14 -7 -25 40 -25 51 0 61 8 35 30 -10 8
-15 31 -15 66 0 45 -4 56 -24 69 -18 12 -29 13 -51 5 -15 -6 -32 -7 -39 -2 -6
5 -20 7 -31 5z"/>
<path d="M23088 7063 c-30 -5 -38 -27 -13 -37 10 -4 15 -19 15 -49 0 -27 -6
-49 -15 -57 -26 -22 -16 -30 35 -30 49 0 59 7 41 26 -6 5 -11 40 -13 78 -3 72
-5 75 -50 69z"/>
<path d="M23212 7054 c-37 -25 -26 -64 26 -92 46 -26 51 -36 25 -47 -13 -4
-25 2 -40 21 -19 24 -23 26 -28 12 -4 -9 -5 -25 -3 -35 5 -26 92 -31 119 -7
36 33 22 55 -67 111 -18 10 -18 11 -1 18 11 5 25 1 36 -9 26 -24 44 -21 35 7
-4 12 -12 25 -18 29 -19 13 -60 9 -84 -8z"/>
<path d="M23383 7046 c-23 -20 -28 -32 -28 -71 0 -37 5 -51 24 -66 25 -21 81
-25 112 -9 32 17 22 32 -16 24 -37 -7 -65 7 -65 32 0 10 14 14 50 14 49 0 50
1 50 30 0 64 -75 91 -127 46z m75 -34 c3 -17 -1 -22 -21 -22 -31 0 -38 9 -26
32 13 25 43 19 47 -10z"/>
<path d="M23540 7055 c0 -8 4 -15 8 -15 5 0 19 -14 31 -31 l23 -31 -31 -38
c-17 -21 -31 -41 -31 -44 0 -3 16 -6 36 -6 29 0 34 3 30 18 -3 9 -1 24 4 32 8
12 11 13 19 1 5 -7 6 -22 4 -32 -5 -17 0 -19 41 -19 51 0 56 10 25 43 -40 42
-41 53 -9 87 39 42 38 50 -6 50 -33 0 -36 -2 -30 -24 7 -29 -7 -42 -23 -22 -8
10 -9 16 -1 21 20 13 -2 25 -46 25 -32 0 -44 -4 -44 -15z"/>
<path d="M15917 5543 c-4 -3 -7 -19 -7 -35 0 -33 20 -37 38 -8 7 11 19 20 27
20 22 0 22 -195 0 -204 -34 -13 -12 -26 45 -26 64 0 71 6 40 33 -17 14 -20 29
-20 107 0 83 2 90 20 90 10 0 24 -9 30 -20 15 -29 44 -27 36 3 -3 12 -6 28 -6
35 0 9 -26 12 -98 12 -54 0 -102 -3 -105 -7z"/>
<path d="M23327 5519 c-9 -6 -17 -21 -17 -34 0 -16 -6 -25 -15 -25 -8 0 -15
-4 -15 -9 0 -5 7 -11 15 -15 11 -4 15 -21 15 -64 0 -67 13 -85 56 -80 33 4 45
28 15 28 -19 0 -21 6 -21 56 0 47 3 57 20 61 11 3 20 9 20 14 0 5 -9 9 -20 9
-14 0 -20 7 -20 23 0 34 -12 47 -33 36z"/>
<path d="M16120 5460 c0 -6 9 -23 20 -38 11 -15 30 -52 44 -83 22 -51 23 -58
10 -78 -9 -12 -26 -21 -40 -21 -17 0 -24 -5 -24 -20 0 -15 7 -20 29 -20 37 0
42 7 96 131 25 57 51 106 57 110 18 11 -1 29 -32 29 -32 0 -50 -18 -29 -30 10
-7 10 -16 0 -52 l-14 -43 -21 44 c-15 33 -18 45 -8 48 6 3 12 11 12 19 0 10
-14 14 -50 14 -28 0 -50 -5 -50 -10z"/>
<path d="M16370 5463 c-34 -6 -47 -21 -27 -29 24 -9 25 -201 2 -210 -33 -13
-12 -24 45 -24 61 0 76 11 40 30 -12 6 -20 21 -20 35 0 22 5 25 34 25 49 0 86
34 93 87 5 35 2 45 -20 67 -28 28 -56 33 -88 16 -13 -7 -19 -7 -19 0 0 5 -3 9
-7 9 -5 -1 -19 -4 -33 -6z m110 -59 c19 -49 -14 -103 -54 -88 -19 7 -22 65 -6
95 15 28 49 24 60 -7z"/>
<path d="M16593 5446 c-23 -20 -28 -32 -28 -71 0 -37 5 -51 24 -66 25 -21 81
-25 112 -9 32 17 22 32 -16 24 -37 -7 -65 7 -65 32 0 10 14 14 50 14 49 0 50
1 50 30 0 64 -75 91 -127 46z m75 -34 c3 -17 -1 -22 -21 -22 -31 0 -38 9 -26
32 13 25 43 19 47 -10z"/>
<path d="M22658 5463 c-26 -4 -41 -33 -18 -33 6 0 10 -40 10 -99 0 -56 -4
-103 -10 -106 -24 -15 -6 -25 45 -25 59 0 66 6 35 33 -11 9 -20 26 -20 37 0
16 7 20 36 20 81 0 129 111 68 159 -30 24 -64 27 -83 9 -11 -10 -14 -10 -18 0
-3 6 -8 11 -11 11 -4 -1 -19 -4 -34 -6z m122 -83 c0 -15 -9 -38 -19 -51 -16
-20 -23 -22 -38 -13 -23 15 -20 93 4 111 23 17 53 -10 53 -47z"/>
<path d="M22892 5463 c-18 -4 -23 -10 -20 -31 4 -32 24 -40 33 -13 8 25 40 28
49 5 8 -22 -1 -34 -27 -34 -36 0 -67 -28 -67 -60 0 -35 15 -41 98 -36 69 4 80
9 65 28 -6 7 -13 37 -15 67 -7 75 -31 90 -116 74z m68 -99 c0 -16 -23 -44 -35
-44 -18 0 -20 36 -2 43 17 8 37 8 37 1z"/>
<path d="M23095 5463 c-46 -9 -49 -12 -31 -31 21 -24 22 -107 1 -116 -32 -12
-13 -26 35 -26 38 0 50 4 50 15 0 8 -4 15 -10 15 -16 0 -12 86 5 100 28 23 45
4 45 -49 0 -27 -4 -53 -10 -56 -23 -14 -7 -25 40 -25 51 0 61 8 35 30 -10 8
-15 31 -15 66 0 45 -4 56 -24 69 -18 12 -29 13 -51 5 -15 -6 -32 -7 -39 -2 -6
5 -20 7 -31 5z"/>
<path d="M23452 5454 c-37 -25 -26 -64 26 -92 46 -26 51 -36 25 -47 -13 -4
-25 2 -40 21 -19 24 -23 26 -28 12 -4 -9 -5 -25 -3 -35 5 -26 92 -31 119 -7
36 33 22 55 -67 111 -18 10 -18 11 -1 18 11 5 25 1 36 -9 22 -20 41 -21 41 -2
0 42 -66 60 -108 30z"/>
<path d="M16513 3953 c-26 -5 -30 -18 -8 -27 8 -3 15 -17 15 -31 0 -20 -5 -25
-25 -25 -56 0 -105 -47 -105 -101 0 -23 18 -61 34 -71 17 -11 74 -9 81 2 5 8
11 8 20 0 7 -6 25 -8 39 -4 27 6 33 18 16 29 -6 4 -10 55 -10 121 0 124 3 119
-57 107z m5 -149 c4 -38 -13 -84 -32 -84 -35 0 -53 72 -26 105 22 26 55 15 58
-21z"/>
<path d="M15778 3939 c-87 -32 -89 -206 -2 -239 52 -20 144 -4 144 25 0 9 -10
10 -41 1 -52 -14 -88 5 -108 57 -29 76 22 161 82 138 17 -7 27 -18 27 -31 0
-33 34 -21 38 13 3 21 -2 29 -23 37 -32 12 -81 12 -117 -1z"/>
<path d="M16634 3935 c-4 -9 -2 -21 4 -27 16 -16 47 -5 47 17 0 26 -42 34 -51
10z"/>
<path d="M16897 3936 c-7 -19 18 -40 38 -32 8 3 15 15 15 26 0 14 -7 20 -24
20 -13 0 -26 -6 -29 -14z"/>
<path d="M16777 3919 c-9 -6 -17 -21 -17 -34 0 -16 -6 -25 -15 -25 -8 0 -15
-4 -15 -9 0 -5 7 -11 15 -15 11 -4 15 -21 15 -64 0 -67 13 -85 56 -80 33 4 45
28 15 28 -19 0 -21 6 -21 56 0 47 3 57 20 61 11 3 20 9 20 14 0 5 -9 9 -20 9
-14 0 -20 7 -20 23 0 34 -12 47 -33 36z"/>
<path d="M8413 3904 c0 -8 4 -14 9 -14 4 0 8 5 8 11 0 5 6 7 13 3 6 -4 8 -3 4
1 -13 15 -34 14 -34 -1z"/>
<path d="M23693 3913 c-7 -2 -13 -16 -13 -29 0 -15 -6 -24 -15 -24 -8 0 -15
-4 -15 -9 0 -5 7 -11 15 -15 11 -4 15 -21 15 -64 0 -69 13 -85 62 -80 36 3 42
21 8 26 -17 3 -20 11 -20 57 0 45 3 55 20 60 11 3 20 11 20 16 0 5 -9 9 -20 9
-16 0 -20 7 -20 30 0 29 -9 35 -37 23z"/>
<path d="M15980 3842 c-61 -62 -26 -152 60 -152 56 0 90 34 90 88 0 53 -25 82
-77 89 -37 5 -46 2 -73 -25z m90 -21 c22 -41 3 -111 -29 -111 -28 0 -49 76
-32 109 15 26 47 27 61 2z"/>
<path d="M16188 3863 c-26 -4 -41 -33 -18 -33 6 0 10 -24 10 -54 0 -30 -4 -58
-10 -61 -23 -14 -7 -25 40 -25 51 0 61 8 35 30 -18 15 -19 36 -4 79 9 24 16
31 33 29 18 -3 21 -11 24 -52 2 -37 -1 -52 -12 -58 -30 -17 -16 -28 34 -28 38
0 50 4 50 15 0 8 -4 15 -10 15 -5 0 -10 22 -10 49 0 27 -3 57 -6 66 -10 25
-49 36 -81 24 -19 -7 -29 -7 -31 0 -2 6 -7 10 -10 10 -4 -1 -19 -4 -34 -6z"/>
<path d="M16650 3862 c-36 -5 -49 -21 -27 -33 23 -13 25 -104 2 -113 -32 -12
-13 -26 35 -26 47 0 63 11 40 25 -5 3 -10 37 -10 75 0 38 -3 70 -7 72 -5 2
-19 2 -33 0z"/>
<path d="M16910 3863 c-34 -6 -47 -21 -27 -29 23 -8 24 -112 2 -120 -32 -13
-13 -24 40 -24 52 0 73 14 40 26 -11 5 -15 24 -15 80 0 41 -3 73 -7 73 -5 -1
-19 -4 -33 -6z"/>
<path d="M17040 3857 c-49 -24 -57 -120 -13 -153 19 -14 80 -18 108 -8 21 8
45 56 45 89 0 36 -50 85 -87 85 -15 0 -39 -6 -53 -13z m68 -29 c22 -28 23 -74
3 -99 -19 -23 -19 -24 -40 -5 -21 19 -28 66 -15 100 7 19 38 21 52 4z"/>
<path d="M17245 3863 c-46 -9 -49 -12 -31 -31 21 -24 22 -107 1 -116 -32 -12
-13 -26 35 -26 38 0 50 4 50 15 0 8 -4 15 -10 15 -16 0 -12 86 5 100 28 23 45
4 45 -49 0 -27 -4 -53 -10 -56 -23 -14 -7 -25 40 -25 51 0 61 8 35 30 -10 8
-15 31 -15 66 0 45 -4 56 -24 69 -18 12 -29 13 -51 5 -15 -6 -32 -7 -39 -2 -6
5 -20 7 -31 5z"/>
<path d="M22950 3857 c-27 -13 -40 -71 -21 -90 7 -7 7 -16 0 -29 -6 -10 -7
-27 -4 -38 3 -10 1 -21 -5 -25 -15 -9 -12 -41 6 -59 9 -10 33 -16 59 -16 55 0
98 32 98 74 0 35 -16 46 -70 46 -23 0 -45 5 -48 10 -4 6 6 10 23 10 44 0 85
36 80 71 -3 20 0 29 10 29 7 0 12 6 10 13 -6 17 -107 20 -138 4z m65 -52 c0
-23 -4 -30 -20 -30 -15 0 -21 8 -23 33 -3 30 -1 33 20 30 18 -2 23 -9 23 -33z
m9 -131 c24 -9 19 -33 -10 -44 -32 -13 -30 -13 -49 6 -28 29 13 56 59 38z"/>
<path d="M23155 3863 c-46 -9 -49 -12 -31 -31 20 -24 21 -95 1 -112 -27 -22
-16 -30 45 -30 61 0 76 11 40 30 -20 11 -27 51 -14 84 7 17 34 22 34 6 0 -5 7
-10 15 -10 20 0 20 56 1 63 -8 3 -22 0 -32 -8 -14 -10 -21 -10 -29 -1 -5 7
-19 11 -30 9z"/>
<path d="M23313 3846 c-23 -20 -28 -32 -28 -71 0 -37 5 -51 24 -66 25 -21 81
-25 112 -9 32 17 22 32 -16 24 -37 -7 -65 7 -65 32 0 10 14 14 50 14 49 0 50
1 50 30 0 64 -75 91 -127 46z m75 -34 c3 -17 -1 -22 -21 -22 -31 0 -38 9 -26
32 13 25 43 19 47 -10z"/>
<path d="M23502 3859 c-16 -6 -22 -15 -20 -31 4 -29 28 -35 35 -9 4 15 12 21
27 19 27 -4 34 -36 9 -44 -59 -19 -74 -29 -79 -50 -4 -14 -1 -31 6 -39 14 -17
76 -20 86 -4 5 8 9 8 14 -1 9 -15 60 -2 60 16 0 8 -4 14 -10 14 -5 0 -10 23
-10 50 0 78 -46 108 -118 79z m68 -103 c0 -7 -7 -19 -15 -26 -22 -19 -44 3
-25 25 16 19 40 20 40 1z"/>
<path d="M8340 3819 c0 -5 5 -7 10 -4 6 3 10 8 10 11 0 2 -4 4 -10 4 -5 0 -10
-5 -10 -11z"/>
<path d="M3870 3570 c0 -5 5 -10 10 -10 6 0 10 5 10 10 0 6 -4 10 -10 10 -5 0
-10 -4 -10 -10z"/>
<path d="M16393 2353 c-25 -5 -29 -13 -12 -30 15 -15 14 -192 -1 -207 -19 -19
-10 -26 40 -26 53 0 58 4 35 34 -11 15 -15 48 -15 128 0 80 -3 108 -12 107 -7
-1 -23 -4 -35 -6z"/>
<path d="M16005 2343 c-45 -11 -85 -70 -85 -123 0 -45 25 -93 59 -113 37 -21
104 -22 136 -1 28 19 24 39 -5 24 -21 -11 -60 -13 -85 -4 -38 15 -60 118 -34
165 16 31 57 43 85 24 13 -8 24 -22 24 -30 0 -8 7 -15 15 -15 10 0 15 10 15
30 0 24 -6 33 -26 40 -26 10 -64 11 -99 3z"/>
<path d="M16210 2257 c-49 -24 -57 -120 -13 -153 19 -14 80 -18 108 -8 21 8
45 56 45 89 0 36 -50 85 -87 85 -15 0 -39 -6 -53 -13z m68 -29 c22 -28 23 -74
3 -99 -19 -23 -19 -24 -40 -5 -21 19 -28 66 -15 100 7 19 38 21 52 4z"/>
<path d="M16550 2263 c-50 -19 -72 -80 -46 -131 17 -34 33 -42 81 -42 53 0 88
36 88 90 0 35 -6 48 -27 67 -26 22 -63 28 -96 16z m60 -42 c14 -28 12 -87 -4
-100 -18 -15 -44 -4 -52 22 -8 26 -8 73 1 87 10 17 44 11 55 -9z"/>
<path d="M16728 2263 c-25 -4 -42 -33 -19 -33 4 0 11 -21 15 -47 4 -34 2 -51
-9 -63 -24 -26 -19 -30 40 -30 52 0 73 14 40 26 -22 9 -21 92 2 101 9 4 19 1
21 -5 8 -25 32 -12 32 17 0 34 -14 42 -50 29 -16 -6 -26 -6 -28 1 -2 6 -7 10
-10 10 -4 -1 -19 -4 -34 -6z"/>
<path d="M22799 2241 c-59 -60 -24 -151 59 -151 35 0 62 14 62 31 0 4 -16 5
-35 2 -28 -4 -39 -1 -50 13 -19 25 -19 78 0 94 18 15 45 6 45 -15 0 -25 27
-17 33 10 9 52 -68 62 -114 16z"/>
<path d="M22935 2261 c-3 -5 0 -13 6 -17 12 -7 79 -145 79 -163 0 -18 -31 -41
-56 -41 -33 0 -29 -34 4 -38 36 -5 57 21 102 129 23 55 46 102 51 105 23 14 8
34 -26 34 -35 0 -46 -15 -25 -36 10 -10 -8 -74 -21 -74 -8 0 -29 47 -29 65 0
7 5 15 12 17 6 2 8 10 4 16 -8 14 -92 16 -101 3z"/>
<path d="M23182 2259 c-16 -6 -22 -15 -20 -31 4 -29 28 -35 35 -9 4 15 12 21
27 19 27 -4 34 -36 9 -44 -59 -19 -74 -29 -79 -50 -4 -14 -1 -31 6 -39 14 -17
76 -20 86 -4 5 8 9 8 14 -1 9 -15 60 -2 60 16 0 8 -4 14 -10 14 -5 0 -10 23
-10 50 0 78 -46 108 -118 79z m68 -103 c0 -22 -29 -41 -42 -28 -8 8 -8 15 2
27 16 19 40 20 40 1z"/>
<path d="M23380 2263 c-34 -6 -47 -21 -27 -29 23 -8 24 -112 2 -120 -32 -13
-13 -24 40 -24 52 0 73 14 40 26 -18 7 -20 65 -5 95 13 23 46 25 54 3 11 -29
6 -81 -9 -94 -26 -22 -16 -30 35 -30 47 0 63 11 40 25 -5 3 -10 25 -10 48 0
23 -3 52 -6 63 -8 30 -47 46 -81 33 -19 -7 -29 -7 -31 0 -2 6 -7 10 -10 10 -4
-1 -18 -4 -32 -6z"/>
<path d="M18766 1061 c-4 -6 0 -14 8 -17 23 -9 23 -199 1 -208 -8 -3 -15 -10
-15 -16 0 -15 135 -12 175 4 86 36 102 173 26 223 -32 21 -184 32 -195 14z
m161 -43 c28 -31 36 -71 23 -118 -11 -42 -33 -60 -73 -60 -32 0 -37 15 -37
116 l0 84 33 0 c22 0 41 -8 54 -22z"/>
<path d="M19754 1055 c-8 -19 3 -35 26 -35 19 0 34 25 24 41 -8 14 -44 10 -50
-6z"/>
<path d="M20244 1055 c-8 -19 3 -35 26 -35 19 0 34 25 24 41 -8 14 -44 10 -50
-6z"/>
<path d="M20113 1033 c-7 -2 -13 -15 -13 -28 0 -13 -8 -26 -17 -30 -17 -6 -17
-7 0 -16 13 -8 17 -23 17 -63 0 -67 15 -89 60 -84 39 4 52 25 18 30 -20 3 -23
9 -26 55 -3 49 -1 53 22 59 33 8 34 24 1 24 -21 0 -25 5 -25 30 0 29 -9 35
-37 23z"/>
<path d="M19066 968 c-36 -33 -39 -105 -6 -138 33 -33 130 -24 130 11 0 4 -16
5 -36 2 -29 -5 -40 -2 -50 12 -22 30 -17 35 35 35 28 0 52 4 55 9 9 14 -15 71
-34 81 -31 16 -67 11 -94 -12z m73 -27 c12 -22 5 -31 -26 -31 -16 0 -23 6 -23
18 0 36 33 44 49 13z"/>
<path d="M19240 970 c-33 -33 -25 -57 27 -84 37 -19 49 -34 36 -47 -13 -13
-41 -1 -48 21 -8 26 -35 14 -35 -15 0 -26 17 -35 69 -35 50 0 74 18 69 55 -2
23 -12 35 -42 50 -22 11 -41 26 -44 33 -6 18 38 15 44 -3 10 -24 34 -18 34 9
0 40 -75 51 -110 16z"/>
<path d="M19415 965 c-54 -53 -19 -155 51 -155 38 0 74 15 74 30 0 6 -16 8
-39 4 -33 -5 -41 -3 -50 14 -12 23 -14 62 -5 86 9 23 45 20 51 -4 8 -31 33
-24 33 9 0 48 -73 59 -115 16z"/>
<path d="M19588 983 c-25 -4 -42 -33 -19 -33 4 0 11 -21 15 -47 4 -34 2 -51
-9 -63 -24 -26 -19 -30 40 -30 52 0 73 14 40 26 -22 9 -21 92 2 101 9 4 19 1
21 -5 8 -25 32 -12 32 17 0 33 -14 42 -47 30 -13 -5 -25 -4 -28 1 -4 6 -9 9
-13 9 -4 -1 -19 -4 -34 -6z"/>
<path d="M19758 983 c-30 -5 -38 -27 -13 -37 10 -4 15 -19 15 -49 0 -27 -6
-49 -15 -57 -26 -22 -16 -30 35 -30 49 0 59 7 41 26 -6 5 -11 40 -13 78 -3 72
-5 75 -50 69z"/>
<path d="M19890 983 c-34 -6 -47 -21 -27 -29 24 -9 25 -201 2 -210 -33 -13
-12 -24 45 -24 61 0 76 11 40 30 -12 6 -20 21 -20 35 0 22 5 25 34 25 49 0 86
34 93 87 5 35 2 45 -20 67 -28 28 -56 33 -88 16 -13 -7 -19 -7 -19 0 0 5 -3 9
-7 9 -5 -1 -19 -4 -33 -6z m110 -59 c19 -49 -14 -103 -54 -88 -19 7 -22 65 -6
95 15 28 49 24 60 -7z"/>
<path d="M20248 983 c-30 -5 -38 -27 -13 -37 10 -4 15 -19 15 -49 0 -27 -6
-49 -15 -57 -26 -22 -16 -30 35 -30 49 0 59 7 41 26 -6 5 -11 40 -13 78 -3 72
-5 75 -50 69z"/>
<path d="M20370 962 c-61 -62 -26 -152 60 -152 56 0 90 34 90 88 0 53 -25 82
-77 89 -37 5 -46 2 -73 -25z m90 -21 c22 -41 3 -111 -29 -111 -28 0 -49 76
-32 109 15 26 47 27 61 2z"/>
<path d="M20578 983 c-26 -4 -41 -33 -18 -33 6 0 10 -24 10 -54 0 -30 -4 -58
-10 -61 -23 -14 -7 -25 40 -25 51 0 61 8 35 30 -18 15 -19 36 -4 79 9 24 16
31 33 29 18 -3 21 -11 24 -52 2 -37 -1 -52 -12 -58 -30 -17 -16 -28 34 -28 38
0 50 4 50 15 0 8 -4 15 -10 15 -5 0 -10 22 -10 49 0 27 -3 57 -6 66 -10 25
-49 36 -81 24 -19 -7 -29 -7 -31 0 -2 6 -7 10 -10 10 -4 -1 -19 -4 -34 -6z"/>
</g>
</svg>
